<svg width="26" height="27" fill="none" xmlns="http://www.w3.org/2000/svg"><path fill-rule="evenodd" clip-rule="evenodd" d="M13.005 6.824a6.67 6.67 0 00-6.672 6.67 6.67 6.67 0 006.672 6.672 6.67 6.67 0 006.67-6.671 6.67 6.67 0 00-6.67-6.671zm0 11a4.33 4.33 0 114.33-4.33 4.328 4.328 0 01-4.33 4.33z" fill="#83FFD3"/><path d="M21.499 6.56a1.559 1.559 0 11-3.118 0 1.559 1.559 0 013.118 0z" fill="#83FFD3"/><path fill-rule="evenodd" clip-rule="evenodd" d="M18.36.582C15.97.47 10.045.476 7.65.582c-2.104.098-3.96.606-5.456 2.102C-.043 4.922-.023 7.854.006 11.987a211.882 211.882 0 01.002 2.918c-.024 4.272-.04 7.175 2.186 9.4 2.242 2.24 5.207 2.219 9.293 2.188.49-.003.995-.007 1.518-.007h.07c4.955 0 6.676 0 8.44-.683 2.407-.934 4.225-3.087 4.403-6.953.113-2.393.106-8.317 0-10.711C25.703 3.575 23.254.807 18.36.582zm3.787 22.069c-1.51 1.51-3.558 1.505-7.981 1.494l-1.193-.001h-.744c-4.876.004-6.92.005-8.43-1.51-1.57-1.563-1.545-3.942-1.507-7.395.006-.559.013-1.146.013-1.762 0-.522-.005-1.032-.01-1.527-.047-5.18-.08-8.795 5.402-9.076l.063-.002c1.33-.047 1.776-.063 5.198-.063l.049.032c.494 0 .98-.004 1.454-.008 5.064-.047 8.872-.081 9.12 5.41.062 1.37.076 1.782.076 5.25v.905c.005 4.702.007 6.729-1.51 8.253z" fill="#83FFD3"/></svg>