<svg width="150" height="38" fill="none" xmlns="http://www.w3.org/2000/svg"><path d="M21.901 2.187c.666-1.66 2.784-2.051 4.066-.865a2.282 2.282 0 01.596 2.702L11.493 35.91c-.69 1.605-2.719 1.993-4.065.919-.845-.722-.889-1.744-.488-2.702l3.74-7.944L.22 4.024C-.252 3.086.07 1.97.869 1.322 2.255.2 4.359.432 5.151 2.133l8.402 18.59 8.348-18.536zm19.389 25.67c-2.601 0-4.896-.559-6.883-1.675-1.952-1.117-3.47-2.702-4.554-4.756-1.048-2.09-1.572-4.504-1.572-7.242 0-2.774.524-5.188 1.572-7.241 1.084-2.09 2.602-3.693 4.553-4.81C36.395 1.016 38.69.458 41.291.458c2.602 0 4.878.558 6.83 1.675 1.987 1.117 3.505 2.72 4.553 4.81 1.084 2.053 1.626 4.467 1.626 7.241 0 2.738-.542 5.152-1.626 7.242-1.048 2.054-2.566 3.639-4.553 4.756-1.952 1.116-4.228 1.675-6.83 1.675zm5.53-6.701c1.3-1.585 1.951-3.91 1.951-6.972 0-3.026-.65-5.332-1.951-6.917-2.638-3.288-8.42-3.288-11.058 0-1.301 1.585-1.952 3.891-1.952 6.917 0 3.063.633 5.386 1.897 6.972 2.628 3.202 8.507 3.266 11.113 0zM81.212.566c.83 0 1.481.252 1.951.756.506.469.759 1.1.759 1.892V25.37c0 4.035-1.084 7.08-3.253 9.133-2.132 2.054-5.294 3.08-9.486 3.08-3.903 0-7.155-.738-9.757-2.215-1.436-.813-2.794-2.66-1.518-4.216 1.007-1.103 2.44-.362 3.524.217 2.438 1.148 4.926 1.945 7.643 1.945 4.987 0 7.48-2.504 7.48-7.512v-4.16c-1.642 3.43-5.219 5.025-8.89 5.025-4.408 0-8.386-2.257-10.407-6.215-.976-1.981-1.464-4.27-1.464-6.863 0-2.594.506-4.882 1.518-6.863 1.012-1.982 2.403-3.513 4.174-4.594 1.807-1.117 3.867-1.675 6.18-1.675 3.622 0 7.162 1.635 8.835 4.972V3.16c0-1.596 1.147-2.594 2.71-2.594zM70.966 22.345c2.35 0 4.192-.775 5.53-2.324 1.337-1.55 2.005-3.693 2.005-6.431 0-2.702-.668-4.828-2.005-6.377-1.301-1.585-3.144-2.378-5.53-2.378-2.385 0-4.264.775-5.637 2.324-1.337 1.55-2.006 3.693-2.006 6.43 0 2.739.687 4.883 2.06 6.432 1.373 1.549 3.235 2.324 5.583 2.324zm22.868 5.404c-1.59 0-2.765-.96-2.765-2.594V3.214c0-1.61 1.178-2.648 2.764-2.648 1.571 0 2.71 1.067 2.71 2.648v21.94c0 1.607-1.135 2.595-2.71 2.595zm20.608.108c-4.719 0-9.034-2.186-11.275-6.431-1.048-2.054-1.572-4.431-1.572-7.134 0-2.738.542-5.152 1.626-7.241 2.291-4.272 6.709-6.593 11.492-6.593 2.718 0 5.556.76 7.86 2.215 1.376.944 2.39 2.804 1.247 4.324-1.005 1.224-2.463.266-3.469-.379-1.625-1.036-3.36-1.783-5.312-1.783-2.458 0-4.373.829-5.746 2.486-1.337 1.657-2.006 3.963-2.006 6.917 0 2.955.669 5.242 2.006 6.864 1.337 1.585 3.234 2.378 5.691 2.378 1.999 0 3.747-.741 5.421-1.784 1.027-.652 2.586-1.517 3.523-.27 1.256 1.53.03 3.277-1.301 4.161-2.376 1.58-5.356 2.27-8.185 2.27zm32.709-24.751c1.734 1.765 2.601 4.45 2.601 8.052v13.997c0 1.613-1.066 2.594-2.656 2.594-1.527 0-2.602-1.064-2.602-2.594v-2c-1.411 3.11-4.469 4.702-7.805 4.702-4.62 0-9.378-3.047-9.378-8.106-.076-4.059 2.654-6.148 6.396-6.918 3.51-.777 7.156-.756 10.733-.756 0-1.99.202-4.375-1.247-5.945-1.779-1.929-5.312-1.524-7.588-.865-1.121.325-2.349.793-3.687 1.406-1.06.587-2.417 1.31-3.415.216-.652-.795-.654-2.095-.054-2.919 1.298-1.725 3.993-2.404 5.963-2.864 4.089-1.04 9.584-1.279 12.739 2zm-9.487 20.698c1.988 0 3.614-.667 4.879-2 1.738-1.88 1.897-4.23 1.897-6.647-2.491 0-5.015-.031-7.48.378-2.213.368-4.228 1.329-4.228 3.837 0 2.713 2.368 4.432 4.932 4.432z" fill="#D29191"/></svg>