<svg width="44" height="44" fill="none" xmlns="http://www.w3.org/2000/svg"><path d="M22.402 42.5c11.338 0 20.533-9.177 20.533-20.5S33.74 1.5 22.402 1.5C11.063 1.5 1.869 10.677 1.869 22s9.194 20.5 20.533 20.5z" fill="#fff" stroke="#D29191" stroke-width="2"/><path d="M34.738 33.2a13.36 13.36 0 00-2.878-4.268 13.416 13.416 0 00-4.268-2.878c-.014-.008-.029-.011-.043-.018A8.856 8.856 0 0022.363 10a8.856 8.856 0 00-8.857 8.857 8.85 8.85 0 003.671 7.182l-.042.018a13.3 13.3 0 00-4.268 2.879 13.416 13.416 0 00-2.879 4.268 13.275 13.275 0 00-1.053 4.932.285.285 0 00.285.293h2.143a.285.285 0 00.286-.279 10.648 10.648 0 013.136-7.296 10.643 10.643 0 017.578-3.14c2.864 0 5.554 1.115 7.579 3.14a10.648 10.648 0 013.136 7.296.283.283 0 00.285.279h2.143a.286.286 0 00.286-.293 13.308 13.308 0 00-1.054-4.936zM22.363 25c-1.64 0-3.182-.64-4.343-1.8a6.103 6.103 0 01-1.8-4.343c0-1.64.64-3.182 1.8-4.343a6.103 6.103 0 014.343-1.8c1.64 0 3.182.64 4.343 1.8a6.103 6.103 0 011.8 4.343c0 1.64-.64 3.182-1.8 4.343a6.103 6.103 0 01-4.343 1.8z" fill="#D29191"/></svg>