<svg width="24" height="25" fill="none" xmlns="http://www.w3.org/2000/svg"><g clip-path="url(#clip0_33_628)"><path fill-rule="evenodd" clip-rule="evenodd" d="M18.384 23.279a1.19 1.19 0 001.107.145 1.16 1.16 0 00.724-.84c.869-4.084 2.977-14.421 3.768-18.136a.78.78 0 00-.26-.758.8.8 0 00-.797-.14C18.733 5.102 5.82 9.947.542 11.9a.827.827 0 00-.542.799.83.83 0 00.593.764c2.367.708 5.474 1.693 5.474 1.693s1.452 4.385 2.209 6.615c.095.28.314.5.603.576a.866.866 0 00.81-.207l3.097-2.923s3.572 2.619 5.598 4.062zm-11.01-8.677l1.679 5.538.373-3.507L19.61 7.447a.277.277 0 00.033-.377.284.284 0 00-.376-.064L7.374 14.602z" fill="#83FFD3"/></g><defs><clipPath id="clip0_33_628"><path fill="#fff" transform="translate(0 .5)" d="M0 0h24v24H0z"/></clipPath></defs></svg>