<svg width="23" height="17" fill="none" xmlns="http://www.w3.org/2000/svg"><path fill-rule="evenodd" clip-rule="evenodd" d="M3.212.887c-1.178.1-2.168.91-2.445 2.06C.411 4.425 0 6.555 0 8.5c0 1.934.407 4.05.761 5.527.28 1.164 1.286 1.978 2.478 2.075 2.071.168 5.423.398 8.261.398 2.884 0 6.3-.238 8.361-.406 1.141-.094 2.115-.846 2.396-1.956.35-1.38.743-3.42.743-5.638 0-2.23-.397-4.283-.749-5.663-.28-1.096-1.236-1.844-2.364-1.942C17.946.727 14.723.5 11.5.5 8.332.5 5.163.72 3.212.887zM15.972 8.5L8.944 4.808v7.384L15.972 8.5z" fill="#83FFD3"/></svg>