<svg width="534" height="551" fill="none" xmlns="http://www.w3.org/2000/svg"><g opacity=".45"><g filter="url(#filter0_f_33_452)" fill="#F1D9D9"><path d="M241.71 421.277S79.854 457.959 50.542 328.561c-29.311-129.386 89.209-108.668 77.735-157.474-11.475-48.806-34.555-117.118 36.531-143.696 76.889-28.74 128.161-9.897 200.431 9.831 72.257 19.728 125.988 57.4 151.526 116.416 29.09 67.206 40.981 188.752-129.787 182.814.026.013-29.207 77.871-145.268 84.825zM475.146 68.123c11.787-13.087-28.062-54.887-46.627-44.326-18.552 10.573 34.138 58.195 46.627 44.326z"/></g><path opacity=".25" d="M168.555 375.434c0 2.729-16.358 6.194-36.534 6.194-20.175 0-36.533-3.465-36.533-6.194 0-2.712 16.358-3.666 36.533-3.666 20.176 0 36.534.937 36.534 3.666z" fill="#C69999"/><path d="M167.541 371.872c0 2.904-14.754 5.261-32.954 5.261-18.201 0-32.954-2.357-32.954-5.261s14.753-5.261 32.954-5.261c18.2.013 32.954 2.357 32.954 5.261z" fill="#D1A3A3"/><path d="M170.429 339.434c-2.16-1.51-4.449-2.018-6.83-1.51-1.939.403-3.656 1.458-5.074 2.656.403-2.748.507-4.506.507-4.506 0-3.411-11.357-6.172-25.356-6.172-14.012 0-25.356 2.761-25.356 6.172 0 0 2.263 37.66 25.356 37.66 5.919 0 10.46-2.474 13.947-6.147 1.756.482 3.473.743 5.125.743 8.054 0 14.728-5.3 18.41-11.85 3.929-7.006 3.629-13.999-.729-17.046zm-2.004 15.47c-3.59 6.394-10.446 11.381-18.526 9.936 4.02-5.534 6.31-12.697 7.585-18.478 1.223-1.732 3.851-4.74 6.778-5.365 1.509-.326 2.941.013 4.372 1.015 3.304 2.331 2.406 8.243-.209 12.892z" fill="#DDB8B8"/><path d="M155.663 336.882c0 2.956-9.849 5.352-21.987 5.352-12.138 0-21.987-2.396-21.987-5.352 0-2.956 9.849-5.352 21.987-5.352 12.151 0 21.987 2.396 21.987 5.352z" fill="#C69999"/><path d="M516.856 291.24a94.894 94.894 0 001.795-2.656H45.911c-.013.885-.04 1.758-.04 2.656h470.985z" fill="#D1A3A3"/><path d="M113.836 230.571v70.514h11.28V259.91h102.687v41.175h11.292v-70.514H113.836z" fill="#DDB8B8"/><path d="M227.802 235.168H125.115v20.861h102.687v-20.861z" fill="#D1A3A3"/><path d="M157.653 180.893c1.899-3.334 7.494-11.577 1.886-13.374-4.15-1.328-4.592 5.391-4.072 10.079a68.672 68.672 0 00-11.436-12.514c-.988-5.521 1.575-11.212-.156-16.746-.533-1.719-4.397-6.224-6.283-3.477-1.783 2.592.351 7.657 1.157 10.222.859 2.748 1.874 5.444 2.967 8.113-4.775-3.711-9.979-6.732-15.417-8.738-3.734-1.38-7.702-2.161-11.67-1.471-1.639.286-3.903 1.146-4.033 3.073-.156 2.292 4.059 3.021 5.477 3.308 6.323 1.25 12.802-1.107 18.995 1.159.195.065.351.052.481-.027a62.46 62.46 0 017.247 5.287c.026.052.039.092.065.144v.013c.026.052.039.104.065.143l.013.013a.467.467 0 00.091.13.514.514 0 00.52.182 63.064 63.064 0 012.914 2.709c-4.631-2.071-13.14-1.081-14.61 3.894-1.301 4.362 15.118-.626 16.692-1.081a.592.592 0 00.364-.287c2.654 2.891 5.087 6.003 7.195 9.298.052.169.104.325.156.443a.476.476 0 00.286.286l.156.274c-3.916-1.563-13.075-3.738-15.573.599-1.262 2.174 2.173 2.903 3.604 3.073 4.267.521 8.886-1.055 13.023-1.928 2.654 4.649 4.696 9.572 5.919 14.585.196.82 1.458.469 1.249-.352-1.431-5.886-3.942-11.654-7.272-17.032z" fill="#DDB8B8"/><path d="M210.343 128.727c-3.643-1.953-8.535 1.537-11.202 3.685-7.662 6.16-12.997 14.533-17.251 23.309 0 .013-.013.026-.013.039-.559 1.172-1.119 2.344-1.639 3.516-2.732 6.095-5.113 12.606-6.622 19.273.039-10.483-.026-21.2-1.288-31.656 3.383-6.277 8.73-11.29 12.034-17.671 1.21-2.344 2.251-5.235 1.73-7.917-.26-1.329-.858-4.154-2.784-4.037-3.916.234-6.661 6.628-8.027 9.61-1.314 2.852-1.925 6.146-2.693 9.18-.403 1.589-.806 3.23-1.119 4.884a98.626 98.626 0 00-1.249-6.16.54.54 0 00-.065-.534c-.026-.039-.065-.078-.091-.13-1.47-6.107-3.525-12.058-6.427-17.736-1.704-3.32-4.124-6.81-7.701-8.243-3.006-1.198-5.985 1.081-6.232 4.05-.312 3.842 3.564 7.136 6.036 9.441 4.515 4.206 9.641 7.878 13.14 13.048a110.19 110.19 0 012.056 11.29c0 .299-.013.599 0 .912 0 .065.026.117.039.182v.026a.689.689 0 00.104.195c.26 2.149.468 4.323.624 6.485-2.51-3.307-6.179-6.081-9.315-8.529-2.68-2.097-7.753-6.563-11.578-5.756-1.575.339-2.108 1.771-2.342 3.243-.325 2.031 1.197 3.476 2.797 4.388 2.199 1.25 4.905 1.615 7.338 2.122 4.709.99 9.406 4.376 13.283 7.149.312 5.261.416 10.535.429 15.796-3.044-6.433-9.276-21.134-15.937-15.73-5.998 4.87 13.634 15.86 15.937 18.556 0 3.802-.039 7.579-.039 11.329-.273 2.474-.416 4.948-.377 7.422.013.834 1.314.847 1.301 0a54.65 54.65 0 01.377-7.149c0-.013.013-.026.013-.039v-.052c.846-7.266 2.992-14.402 5.555-21.2a114.603 114.603 0 013.799-8.88s.013 0 .013-.013c8.157-8.491 20.764-11.577 28.518-20.484 2.342-2.708 2.029-5.521-1.132-7.214z" fill="#DDB8B8"/><path d="M196.93 164.003c-5.517-.742-10.135 7.67-12.295 11.499a51.353 51.353 0 00-3.057 6.459c0 .013-.013.013-.013.026-.039.052-.039.117-.065.169a52.801 52.801 0 00-1.21 3.399c-.69 2.213-1.496 5.078-.677 7.37.274.781 1.536.443 1.249-.352-.975-2.76.105-6.406 1.523-9.688a.605.605 0 00.299-.247c1.106-1.849 3.994-3.191 5.711-4.376 2.81-1.94 5.62-3.893 8.209-6.133 2.55-2.201 6.128-7.331.326-8.126z" fill="#DDB8B8"/><path d="M197.385 192.013h-51.038v38.441h51.038v-38.441z" fill="#D1A3A3"/><path d="M453.355 175.996h-53.978v45.46h53.978v-45.46zm38.965-97.794h-92.306v61.737h92.306V78.202zm-162.702-34.13h-92.631v92.208h92.631V44.072zm-22.234 115.296h-38.756v32.645h38.756v-32.645z" fill="#E6C1C1"/></g><path d="M504.481 321.875c-2.563-2.839-153.439-2.708-159.801 0-6.362 2.709-169.805 125.609-168.829 131.326.976 5.716 267.692 18.022 276.187 13.933 8.496-4.102 55.93-141.404 52.443-145.259z" fill="#59778D"/><g style="mix-blend-mode:multiply" opacity=".2" filter="url(#filter1_f_33_452)"><path d="M182.512 423.126c25.286-7.231 87.298-15.613 123.148-13.558 32.155-5.205 108.862-1.315 133.82 3.287 31.198 5.752 9.031 20.543 0 23.83-9.031 3.287 13.136 14.791 25.861 20.954 12.725 6.164 7.389 9.451 2.463 13.559-3.941 3.287-34.755-2.739-35.713-4.108-2.955-3.945 5.61-8.492 0-12.327l-16.419-6.163c-3.613 7.232-17.378 13.148-23.809 15.203-33.66-10.683-88.256-16.024-137.104-17.668-39.079-1.315-72.247-13.559-89.077-14.38-16.831-.822 16.83-8.629 16.83-8.629z" fill="#A97A7A"/></g><path d="M325.422 344.65s-5.056 12.636-5.395 22.598c-12.945 0-77.804-6.88-99.465.203-21.662 7.084-19.905 37.191-19.242 44.496.664 7.305 19.242 18.595 69.681 21.916 50.427 3.321 78.307 7.305 78.307 7.305s.039-11.29 5.998-15.938c14.584 2.656 49.789 12.618 59.065 11.954 9.263-.664 29.844-9.298 32.498-17.267 2.654-7.97-7.962-45.824-7.962-45.824s-6.192-6.642-26.319-3.321c-2.875-17.267-9.289-26.122-9.289-26.122s-44.676 12.397-77.877 0z" fill="#9BD3BF"/><path d="M325.582 312.773s-.43 27.606 0 32.034c11.045 9.779 65.453 8.855 77.838 0 .442-15.054 2.602-33.336 2.602-33.336s-52.105 4.258-80.44 1.302z" fill="#FDD1B1"/><path d="M477.069 417.286c-2.901-6.654-12.932-13.217-20.166-20.249-.26-1.211-.52-2.721-.806-4.492 0 0-6.661-55.721-9.758-75.644-3.096-19.924.898-87.26-6.192-98.745-9.289-15.053-42.009-27.893-43.558-31.435-1.561-3.542-2.328-41.748-2.328-41.748l-31.888 19.389s1.64 22.58-.663 23.909c-2.303 1.328-39.238 5.651-50.466 20.587-11.227 14.949-44.519 71.725-54.693 86.791-10.174 15.053-35.829 53.142-44.234 62.883-9.731 2.656-21.674 3.542-27.425 7.969-5.75 4.428-7.962 15.939-2.654 15.496 3.981 0 4.32-10.183 12.282-11.068 7.962-.886 3.2 7.526 3.2 7.526s-8.73 16.056-13.27 4.988c-.221-.99-3.318-1.771-4.541 1.002-1.209 2.774 1.445 10.405 8.964 9.077-4.865 3.984-17.03 16.381-15.703 19.259 1.327 2.878 19.463-13.282 19.463-13.282s-12.828 14.389-9.952 17.045c2.875 2.657 38.262-36.748 45.781-46.488 7.52-9.74 37.716-37.308 52.977-64.875 10.616-12.618 36.61-49.366 36.61-49.366l51.246-12.397 34.138 23.908 9.289-6.641s5.75 46.046 8.404 59.784c-2.654 13.282 3.097 30.106 7.52 42.06 4.423 11.955 7.012 29.521 7.012 29.521.716 2.956 1.262 5.417 1.548 7.266 1.874 12.163 13.843 63.781 17.642 62.857 3.799-.938-.481-19.741-.481-19.741s8.079 22.918 10.629 21.043c2.55-1.875-2.121-18.621-4.45-24.455 5.946 4.805 11.956-.599 12.23-3.62.273-3.008-2.811-3.829-3.487-3.06-9.315 7.5-9.211-10.782-9.211-10.782s-.104-9.663 6.44-5.04c6.544 4.623 1.912 13.699 5.399 15.626 4.423 2.956 8.04-8.19 5.152-14.858z" fill="#FDD1B1"/><path opacity=".6" d="M394.261 144.986l-31.887 19.39s.442 6.146.546 12.214c13.244-2.5 24.992-10.066 31.757-16.447a1063.23 1063.23 0 01-.416-15.157zm-68.758 173.191c16.263 2.917 60.913 6.237 79.868-1.042.378-3.672.651-6.016.651-6.016s-52.105 4.245-80.441 1.302c0 .013-.026 2.357-.078 5.756zm-130.996 52.752c4.618-.508 4.956 2.096 4.423 4.388 0 0 4.97-7.709-3.656-6.824-8.625.886-8.807 8.999-8.807 8.999 1.639-2.839 3.707-6.082 8.04-6.563zm24.055-2.839s-7.468.039-9.458 9.076c-1.991 9.037-6.609 13.322-6.609 13.322s4.124-7.775 4.957-14.077c.832-6.316 6.96-12.15 11.11-8.321zm247.877 48.376c-3.863-2.578-5.36-.417-5.945 1.849 0 0-.872-9.128 6.375-4.375 7.246 4.766 3.317 12.136 3.499 12.136-.143-3.281-.299-7.188-3.929-9.61zm-21.908-5.56s7.181 2.031 6.687 11.277c-.495 9.245 2.81 14.61 2.81 14.61s-1.899-8.594-1.015-14.897c.898-6.302-3.46-13.582-8.482-10.99zM319.922 251.479v-24.338c3.436 4.219 4.32 12.176 4.32 12.176l-4.32 12.162zm92.8 8.868s-3.877-17.931-4.866-19.598c-.338 7.969 0 21.447 0 21.447s2.433.143 4.866-1.849z" fill="#E3A87D"/><path d="M316.28 101.936s-10.476 1.219-9.389 13.448c1.251 14.067 6.979 22.598 9.389 21.32 3.336 1.278 8.404 7.527 8.404 7.527s14.597 23.908 32.733 22.58c18.136-1.329 34.502-13.283 40.695-20.809 7.077-7.084 9.739-13.431 12.224-12.129 4.104 2.152 10.576-4.93 12.314-12.326 2.995-12.737-1.927-23.388-13.922-15.835-5.75-1.771-24.771-34.534-24.771-34.534s-52.196 6.198-52.196 7.526c0 1.316-15.481 23.232-15.481 23.232z" fill="#FDD1B1"/><path opacity=".7" d="M408.741 105.699c-2.921-14.556-9.966-27.047-24.771-34.534-18.381-9.296-42.187 0-52.196 7.526-10.008 7.527-15.481 23.244-15.481 23.244s-1.34.365-3.136 1.29c-1.912 10.534-2.315 21.655-1.47 32.281 1.952.937 3.734 1.185 4.606 1.185 2.654 0 8.404 7.527 8.404 7.527s4.351 5.109 6.003 7.323c-3.284-14.85-2.208-40.266 4.926-51.359 0 0 9.852-2.054 20.919-11.92-2.447 11.098-6.142 16.029-6.142 16.029s19.35-6.185 29.966-23.01c-2.211 12.84 8.025 20.264 15.987 23.806.819 4.414.702 24.937-3.071 45.785 1.965-1.719 3.604-3.399 4.84-4.883 7.077-7.084 7.695-4.309 7.695-4.309s1.454 1.985 2.921.411c2.095-9.649 2.415-18.079 3.236-30.816 4.105-5.752 7.389-6.573 10.263-4.108-1.232-3.287-6.513-5.857-13.499-1.468z" fill="#EEB892"/><path d="M428.217 79.89c11.865 1.263 11.162-20.68 6.505-30.342-7.403-15.352-36.831-23.322-54.082-16.016-10.565 4.48-11.423 10.56-10.499 14.61-2.772-2.54-5.868-6.967-5.868-14.168-3.096 2.214-3.083 14.298 5.087 17.046.82.26 1.509.43 2.095.534.325.573 50.777 31.357 50.777 31.357s12.828 4.206 11.943 15.053c2.251-1.693 3.227-13.243-5.958-18.075z" fill="#60473D"/><path opacity=".6" d="M414.933 67.18c1.314-.638 19.255-7.123 12.386-26.37l-1.887-1.366s10.734 20.43-18.031 23.309c-1.536 1.77 7.532 4.427 7.532 4.427z" fill="#60473D"/><path opacity=".6" d="M420.398 36.514s16.743 16.498-16.263 21.473c-2.927.99-4.02-1.72-4.02-1.72s32.941-2.968 17.928-20.847c1.678 1.992 2.355 1.094 2.355 1.094zm-11.969-4.232s-18.709-2.292-20.478 22.944c-2.654-.443-3.539-1.914-3.539-1.914s-1.379-19.181 18.552-22.033a54.901 54.901 0 015.465 1.003z" fill="#60473D"/><path d="M390.163 53.455s-45.066-15.6-66.299 18.061c-21.232 33.649-13.556 95.854 7.468 111.676-2.212-8.412-8.404-52.686.442-85.905 0 0 13.713-2.214 24.771-11.512-4.865 11.069-7.077 13.725-7.077 13.725s22.117-6.198 32.733-23.022c-2.212 12.84 6.193 22.58 14.155 26.122 1.327 7.084.221 55.785-14.598 80.592 7.963-.885 32.733-25.679 30.079-77.493 2.212-3.099 9.582-3.874 11.224 4.344 6.157-14.792 9.124-48.176-32.898-56.588z" fill="#855B49"/><path opacity=".6" d="M331.761 97.287s5.53-24.351 23.665-31.878c-7.805 4.78-17.238 17.97-19.905 31.018-2.341.586-3.76.86-3.76.86z" fill="#60473D"/><path opacity=".5" d="M396.357 102.6s1.769-21.474-4.425-31.435c3.514 10.183 1.549 29.885 1.549 29.885l2.876 1.55z" fill="#C29581"/><path opacity=".6" d="M411.838 105.699s.663-13.061-1.991-20.588c4.424 5.092 4.671 18.661 4.671 18.661s-1.574.156-2.68 1.927z" fill="#60473D"/><path d="M324.28 399.277s3.279-10.404-9.341-12.071c-12.607-1.667-17.589-3.659-24.55-10.3-6.973-6.642-8.963-4.519-15.598-1.589-5.308-2.722-13.375-2.058-14.48 6.237 3.968-1.028 14.115-.716 21.453 4.337 7.476 4.777 39.904 22.855 39.904 22.855s2.313-7.906 2.612-9.469z" fill="#FACBAC"/><path d="M381.303 374.957c-5.751.886-26.892 20.366-57.023 23.908-1.873 1.615-2.966 4.193-3.603 6.29-9.068-5.222-17.408-10.066-21.337-12.488-10.954-6.758-24.888-16.499-39.042-11.511a79.339 79.339 0 01-5.582 1.719c-4.904-3.972-18.656-4.714-21.075-1.381 10.954-.664 15.911 2.618 15.911 2.618s.039-.013.091-.026c-10.994 2.344-20.985 2.721-20.985 2.721 2.328 1.654 17.589 2.657 26.215 0 21.232-8.972 29.532 1.654 39.498 6.98 4.046 2.162 59.221 33.075 59.221 33.075l1.834-1.862s-16.132-9.141-31.445-17.931c.234-1.836 1.054-4.011 3.344-5.755 6.192-1.107 29.194-6.199 50.881-21.474 4.202-1.549 40.695 8.191 42.464 6.642.014-.013-33.617-12.41-39.367-11.525z" fill="#86BDA9"/><path d="M348.761 441.205s28.613 6.995 39.841 13.415c6.973 3.985 14.874-7.281 11.882-12.594 3.284 2.877 6.567-4.108 1.642-6.573-6.979-4.52-8.21-1.52-17.652-3.698-9.441-2.179-23.288-5.509-29.555-6.985-2.874 1.232-6.158 4.481-6.158 16.435z" fill="#FDD1B1"/><path d="M345.799 191.891s-6.297-.313-12.308 3.555c-3.929 12.748-9.25 34.677-11.904 41.644-4.982 7.969-12.346 27.671-7.662 41.071 4.683 13.399 8.001 22.697 5.672 32.997 3.656 2.995 72.335 10.301 90.25-1.667.338-16.941 4.189-38.544 4.189-38.544l-1.301-10.275s-11.839 9.298-9.849-13.62c1.991-22.919 7.676-42.178 11.631-49.484-3.565-4.323-9.627-5.365-9.627-5.365s-7.299 13.673-10.616 35.928c-1.34 1.666-47.122 8.972-54.746-5.977-.026-14.611 6.271-30.263 6.271-30.263z" fill="#fff"/><path opacity=".45" d="M355.765 269.644s3.382 16.942 22.767 20.262c-1.874 3.321-26.085-2.995-22.767-20.262z" fill="#CBDBE9"/><path d="M320.027 367.248s8.859 3.269 13.166 9.585c.325-4.988-12.958-13.283-12.958-13.283l-.208 3.698zm92.695 3.681s-8.964.768-17.563 5.352c-.247-3.686 16.119-8.334 17.563-8.009v2.657zm-72.556 14.876s5.672 6.406 6.986 10.013l-2.771.964-4.215-10.977z" fill="#86BDA9"/><path d="M345.474 114.554c-1.887 3.138-8.847 5.742-9.667.312-.26-1.693-2.81-.963-2.563.703.456 3.035 2.485 5.261 5.699 5.053 3.096-.208 5.815-2.5 7.35-5.066.885-1.471.065-2.461-.819-1.002zm38.899 2.552c-3.538 4.258-12.71 6.433-14.402-.951-.377-1.666-2.94-.963-2.563.704 2.134 9.349 12.984 7.214 17.902 1.315 1.106-1.289.169-2.383-.937-1.068z" fill="#60473D"/><path d="M347.516 132.85c.495 1.64 2.277 1.458 1.782-.183-.975-3.216 1.015-4.258 3.227-5.794 1.314-.925 2.121-2.396 2.849-3.79 1.848-3.581.377-8.152.859-12.045.208-1.693-1.08-1.68-1.288 0-.664 5.313-.351 11.642-5.581 14.689-2.876 1.653-2.72 4.245-1.848 7.123z" fill="#EEB892"/><path opacity=".6" d="M362.946 142.785c-10.395 4.206-11.267 1.732-16.249-.82-1.523-.781-2.863 1.51-1.34 2.292 5.503 2.799 11.695 1.94 17.589 1.172 1.678-.196 1.691-2.865 0-2.644z" fill="#C48F6A"/><path d="M370.284 106.402c2.836-1.289 5.516-.599 7.571.443 1.523.768 2.863-1.524 1.34-2.292-2.992-1.524-7.155-1.797-10.251-.443-1.562.69-.209 2.995 1.34 2.292zm-29.546-.964c1.912-.716 4.475-.364 6.375.274 1.626.547 2.315-2.018.702-2.565-2.29-.782-5.464-1.146-7.78-.274-1.587.599-.897 3.164.703 2.565z" fill="#A47865"/><g opacity=".6" filter="url(#filter2_f_33_452)"><path d="M118.064 469.144c20.115 0 113.643 5.701 153.935 11.915-24.629 19.722-67.167 47.25-103.034 63.274C105.156 543.09 32.862 532.689 6 527.899c0 0 84.561-52.181 112.064-58.755z" fill="#E5C8C8"/></g><path d="M263.693 475.312s-12.632-4.479-103.572-11.98c-28.621 7.618 13.036 64.875 13.036 64.875s88.65-50.369 90.536-52.895z" fill="#E6F6FF"/><path d="M173.353 534.9s88.727-50.238 91.03-52.751c.625-1.264.559-6.511-.702-6.824-1.262-.312-92.644 53.911-92.644 53.911l2.316 5.664z" fill="#C4DDFB"/><path d="M171.05 516.943s45.118-22.997 45.43-24.885c.312-1.888-52.248-7.943-52.248-7.943l6.818 32.828zm-6.817-38.428s25.161 2.943 27.295 2.579c2.146-.378 11.982-7.358 10.069-7.93-1.899-.573-39.433-4.428-39.433-4.428l2.069 9.779z" fill="#7E93A5"/><path d="M7.802 401.66c-4.098 3.061 15.104 120.648 18.89 122.536 3.773 1.888 144.15 13.23 146.674 10.717 2.524-2.526-20.14-126.012-23.288-126.651-3.161-.638-138.503-9.427-142.276-6.602z" fill="#9FC4E2"/><defs><filter id="filter0_f_33_452" x="33.866" y=".667" width="512.134" height="437.412" filterUnits="userSpaceOnUse" color-interpolation-filters="sRGB"><feFlood flood-opacity="0" result="BackgroundImageFix"/><feBlend in="SourceGraphic" in2="BackgroundImageFix" result="shape"/><feGaussianBlur stdDeviation="6" result="effect1_foregroundBlur_33_452"/></filter><filter id="filter1_f_33_452" x="155.969" y="402.083" width="322.265" height="75.083" filterUnits="userSpaceOnUse" color-interpolation-filters="sRGB"><feFlood flood-opacity="0" result="BackgroundImageFix"/><feBlend in="SourceGraphic" in2="BackgroundImageFix" result="shape"/><feGaussianBlur stdDeviation="2.5" result="effect1_foregroundBlur_33_452"/></filter><filter id="filter2_f_33_452" x="0" y="463.144" width="277.999" height="87.189" filterUnits="userSpaceOnUse" color-interpolation-filters="sRGB"><feFlood flood-opacity="0" result="BackgroundImageFix"/><feBlend in="SourceGraphic" in2="BackgroundImageFix" result="shape"/><feGaussianBlur stdDeviation="3" result="effect1_foregroundBlur_33_452"/></filter></defs></svg>