<svg width="534" height="551" viewBox="0 0 534 551" fill="none" xmlns="http://www.w3.org/2000/svg">
<g opacity="0.45">
<g filter="url(#filter0_f_33_452)">
<path d="M241.71 421.277C241.71 421.277 79.8537 457.959 50.5423 328.561C21.231 199.175 139.751 219.893 128.277 171.087C116.802 122.281 93.7222 53.9685 164.808 27.3908C241.697 -1.34849 292.969 17.4942 365.239 37.2223C437.496 56.9505 491.227 94.6228 516.765 153.638C545.855 220.844 557.746 342.39 386.978 336.452C387.004 336.465 357.771 414.323 241.71 421.277Z" fill="#F1D9D9"/>
<path d="M475.146 68.1233C486.933 55.0363 447.084 13.236 428.519 23.7968C409.967 34.3705 462.657 81.9916 475.146 68.1233Z" fill="#F1D9D9"/>
</g>
<path opacity="0.25" d="M168.555 375.434C168.555 378.163 152.197 381.628 132.021 381.628C111.846 381.628 95.4875 378.163 95.4875 375.434C95.4875 372.722 111.846 371.768 132.021 371.768C152.197 371.768 168.555 372.705 168.555 375.434Z" fill="#C69999"/>
<path d="M167.541 371.872C167.541 374.776 152.787 377.133 134.587 377.133C116.386 377.133 101.633 374.776 101.633 371.872C101.633 368.968 116.386 366.611 134.587 366.611C152.787 366.624 167.541 368.968 167.541 371.872Z" fill="#D1A3A3"/>
<path d="M170.429 339.434C168.269 337.924 165.98 337.416 163.599 337.924C161.66 338.327 159.943 339.382 158.525 340.58C158.928 337.832 159.032 336.074 159.032 336.074C159.032 332.663 147.675 329.902 133.676 329.902C119.664 329.902 108.32 332.663 108.32 336.074C108.32 336.074 110.583 373.734 133.676 373.734C139.595 373.734 144.136 371.26 147.623 367.587C149.379 368.069 151.096 368.33 152.748 368.33C160.802 368.33 167.476 363.03 171.158 356.48C175.087 349.474 174.787 342.481 170.429 339.434ZM168.425 354.904C164.835 361.298 157.979 366.285 149.899 364.84C153.919 359.306 156.209 352.143 157.484 346.362C158.707 344.63 161.335 341.622 164.262 340.997C165.771 340.671 167.203 341.01 168.634 342.012C171.938 344.343 171.04 350.255 168.425 354.904Z" fill="#DDB8B8"/>
<path d="M155.663 336.882C155.663 339.838 145.814 342.234 133.676 342.234C121.538 342.234 111.689 339.838 111.689 336.882C111.689 333.926 121.538 331.53 133.676 331.53C145.827 331.53 155.663 333.926 155.663 336.882Z" fill="#C69999"/>
<path d="M516.856 291.24C517.467 290.368 518.066 289.482 518.651 288.584C398.349 288.584 278.046 288.584 157.744 288.584C120.471 288.584 83.1842 288.584 45.9109 288.584C45.8978 289.469 45.8718 290.342 45.8718 291.24C192.779 291.24 339.7 291.24 486.608 291.24C496.69 291.24 506.773 291.24 516.856 291.24Z" fill="#D1A3A3"/>
<path d="M113.836 230.571V301.085H125.116V259.91H227.803V301.085H239.095V230.571H113.836Z" fill="#DDB8B8"/>
<path d="M227.802 235.168H125.115V256.029H227.802V235.168Z" fill="#D1A3A3"/>
<path d="M157.653 180.893C159.552 177.559 165.147 169.316 159.539 167.519C155.389 166.191 154.947 172.91 155.467 177.598C152.202 172.975 148.312 168.743 144.031 165.084C143.043 159.563 145.606 153.872 143.875 148.338C143.342 146.619 139.478 142.114 137.592 144.861C135.809 147.453 137.943 152.518 138.749 155.083C139.608 157.831 140.623 160.527 141.716 163.196C136.941 159.485 131.737 156.464 126.299 154.458C122.565 153.078 118.597 152.297 114.629 152.987C112.99 153.273 110.726 154.133 110.596 156.06C110.44 158.352 114.655 159.081 116.073 159.368C122.396 160.618 128.875 158.261 135.068 160.527C135.263 160.592 135.419 160.579 135.549 160.5C138.06 162.063 140.48 163.834 142.796 165.787C142.822 165.839 142.835 165.879 142.861 165.931C142.861 165.931 142.861 165.931 142.861 165.944C142.887 165.996 142.9 166.048 142.926 166.087L142.939 166.1C142.965 166.152 142.991 166.191 143.03 166.23C143.173 166.399 143.355 166.451 143.55 166.412C144.552 167.285 145.515 168.183 146.464 169.121C141.833 167.05 133.324 168.04 131.854 173.015C130.553 177.377 146.972 172.389 148.546 171.934C148.728 171.882 148.832 171.777 148.91 171.647C151.564 174.538 153.997 177.65 156.105 180.945C156.157 181.114 156.209 181.27 156.261 181.388C156.326 181.544 156.43 181.635 156.547 181.674C156.599 181.765 156.651 181.856 156.703 181.948C152.787 180.385 143.628 178.21 141.13 182.547C139.868 184.721 143.303 185.45 144.734 185.62C149.001 186.141 153.62 184.565 157.757 183.692C160.411 188.341 162.453 193.264 163.676 198.277C163.872 199.097 165.134 198.746 164.925 197.925C163.494 192.039 160.983 186.271 157.653 180.893Z" fill="#DDB8B8"/>
<path d="M210.343 128.727C206.7 126.774 201.808 130.264 199.141 132.412C191.479 138.572 186.144 146.945 181.89 155.721C181.89 155.734 181.877 155.747 181.877 155.76C181.318 156.932 180.758 158.104 180.238 159.276C177.506 165.371 175.125 171.882 173.616 178.549C173.655 168.066 173.59 157.349 172.328 146.893C175.711 140.616 181.058 135.603 184.362 129.222C185.572 126.878 186.613 123.987 186.092 121.305C185.832 119.976 185.234 117.151 183.308 117.268C179.392 117.502 176.647 123.896 175.281 126.878C173.967 129.73 173.356 133.024 172.588 136.058C172.185 137.647 171.782 139.288 171.469 140.942C171.118 138.871 170.702 136.827 170.22 134.782C170.285 134.626 170.285 134.431 170.155 134.248C170.129 134.209 170.09 134.17 170.064 134.118C168.594 128.011 166.539 122.06 163.637 116.382C161.933 113.062 159.513 109.572 155.936 108.139C152.93 106.941 149.951 109.22 149.704 112.189C149.392 116.031 153.268 119.325 155.74 121.63C160.255 125.836 165.381 129.508 168.88 134.678C169.765 138.402 170.442 142.166 170.936 145.968C170.936 146.267 170.923 146.567 170.936 146.88C170.936 146.945 170.962 146.997 170.975 147.062C170.975 147.062 170.975 147.075 170.975 147.088C171.001 147.166 171.04 147.231 171.079 147.283C171.339 149.432 171.547 151.606 171.703 153.768C169.193 150.461 165.524 147.687 162.388 145.239C159.708 143.142 154.635 138.676 150.81 139.483C149.235 139.822 148.702 141.254 148.468 142.726C148.143 144.757 149.665 146.202 151.265 147.114C153.464 148.364 156.17 148.729 158.603 149.236C163.312 150.226 168.009 153.612 171.886 156.385C172.198 161.646 172.302 166.92 172.315 172.181C169.271 165.748 163.039 151.047 156.378 156.451C150.38 161.321 170.012 172.311 172.315 175.007C172.315 178.809 172.276 182.586 172.276 186.336C172.003 188.81 171.86 191.284 171.899 193.758C171.912 194.592 173.213 194.605 173.2 193.758C173.161 191.362 173.304 188.979 173.577 186.609C173.577 186.596 173.59 186.583 173.59 186.57C173.59 186.557 173.59 186.531 173.59 186.518C174.436 179.252 176.582 172.116 179.145 165.318C180.277 162.336 181.539 159.368 182.944 156.438C182.944 156.438 182.957 156.438 182.957 156.425C191.114 147.934 203.721 144.848 211.475 135.941C213.817 133.233 213.504 130.42 210.343 128.727Z" fill="#DDB8B8"/>
<path d="M196.93 164.003C191.413 163.261 186.795 171.673 184.635 175.502C183.464 177.572 182.45 179.747 181.578 181.961C181.578 181.974 181.565 181.974 181.565 181.987C181.526 182.039 181.526 182.104 181.5 182.156C181.058 183.276 180.654 184.409 180.29 185.555C179.6 187.768 178.794 190.633 179.613 192.925C179.887 193.706 181.149 193.368 180.862 192.573C179.887 189.813 180.967 186.167 182.385 182.885C182.502 182.833 182.606 182.768 182.684 182.638C183.79 180.789 186.678 179.447 188.395 178.262C191.205 176.322 194.015 174.369 196.604 172.129C199.154 169.928 202.732 164.798 196.93 164.003Z" fill="#DDB8B8"/>
<path d="M197.385 192.013H146.347V230.454H197.385V192.013Z" fill="#D1A3A3"/>
<path d="M453.355 175.996H399.377V221.456H453.355V175.996Z" fill="#E6C1C1"/>
<path d="M492.32 78.2021H400.014V139.939H492.32V78.2021Z" fill="#E6C1C1"/>
<path d="M329.618 44.0719H236.987V136.28H329.618V44.0719Z" fill="#E6C1C1"/>
<path d="M307.384 159.368H268.628V192.013H307.384V159.368Z" fill="#E6C1C1"/>
</g>
<path d="M504.481 321.875C501.918 319.036 351.042 319.167 344.68 321.875C338.318 324.584 174.875 447.484 175.851 453.201C176.827 458.917 443.543 471.223 452.038 467.134C460.534 463.032 507.968 325.73 504.481 321.875Z" fill="#59778D"/>
<g style="mix-blend-mode:multiply" opacity="0.2" filter="url(#filter1_f_33_452)">
<path d="M182.512 423.126C207.798 415.895 269.81 407.513 305.66 409.568C337.815 404.363 414.522 408.253 439.48 412.855C470.678 418.607 448.511 433.398 439.48 436.685C430.449 439.972 452.616 451.476 465.341 457.639C478.066 463.803 472.73 467.09 467.804 471.198C463.863 474.485 433.049 468.459 432.091 467.09C429.136 463.145 437.701 458.598 432.091 454.763L415.672 448.6C412.059 455.832 398.294 461.748 391.863 463.803C358.203 453.12 303.607 447.779 254.759 446.135C215.68 444.82 182.512 432.576 165.682 431.755C148.851 430.933 182.512 423.126 182.512 423.126Z" fill="#A97A7A"/>
</g>
<path d="M325.422 344.65C325.422 344.65 320.366 357.286 320.027 367.248C307.082 367.248 242.223 360.368 220.562 367.451C198.9 374.535 200.657 404.642 201.32 411.947C201.984 419.252 220.562 430.542 271.001 433.863C321.428 437.184 349.308 441.168 349.308 441.168C349.308 441.168 349.347 429.878 355.306 425.23C369.89 427.886 405.095 437.848 414.371 437.184C423.634 436.52 444.215 427.886 446.869 419.917C449.523 411.947 438.907 374.093 438.907 374.093C438.907 374.093 432.715 367.451 412.588 370.772C409.713 353.505 403.299 344.65 403.299 344.65C403.299 344.65 358.623 357.047 325.422 344.65Z" fill="#9BD3BF"/>
<path d="M325.582 312.773C325.582 312.773 325.152 340.379 325.582 344.807C336.627 354.586 391.035 353.662 403.42 344.807C403.862 329.753 406.022 311.471 406.022 311.471C406.022 311.471 353.917 315.729 325.582 312.773Z" fill="#FDD1B1"/>
<path d="M477.069 417.286C474.168 410.632 464.137 404.069 456.903 397.037C456.643 395.826 456.383 394.316 456.097 392.545C456.097 392.545 449.436 336.824 446.339 316.901C443.243 296.977 447.237 229.641 440.147 218.156C430.858 203.103 398.138 190.263 396.589 186.721C395.028 183.179 394.261 144.973 394.261 144.973L362.373 164.362C362.373 164.362 364.013 186.942 361.71 188.271C359.407 189.599 322.472 193.922 311.244 208.858C300.017 223.807 266.725 280.583 256.551 295.649C246.377 310.702 220.722 348.791 212.317 358.532C202.586 361.188 190.643 362.074 184.892 366.501C179.142 370.929 176.93 382.44 182.238 381.997C186.219 381.997 186.558 371.814 194.52 370.929C202.482 370.043 197.72 378.455 197.72 378.455C197.72 378.455 188.99 394.511 184.45 383.443C184.229 382.453 181.132 381.672 179.909 384.445C178.7 387.219 181.354 394.85 188.873 393.522C184.008 397.506 171.843 409.903 173.17 412.781C174.497 415.659 192.633 399.499 192.633 399.499C192.633 399.499 179.805 413.888 182.681 416.544C185.556 419.201 220.943 379.796 228.462 370.056C235.982 360.316 266.178 332.748 281.439 305.181C292.055 292.563 318.049 255.815 318.049 255.815L369.295 243.418L403.433 267.326L412.722 260.685C412.722 260.685 418.472 306.731 421.126 320.469C418.472 333.751 424.223 350.575 428.646 362.529C433.069 374.484 435.658 392.05 435.658 392.05C436.374 395.006 436.92 397.467 437.206 399.316C439.08 411.479 451.049 463.097 454.848 462.173C458.647 461.235 454.367 442.432 454.367 442.432C454.367 442.432 462.446 465.35 464.996 463.475C467.546 461.6 462.875 444.854 460.546 439.02C466.492 443.825 472.502 438.421 472.776 435.4C473.049 432.392 469.965 431.571 469.289 432.34C459.974 439.84 460.078 421.558 460.078 421.558C460.078 421.558 459.974 411.895 466.518 416.518C473.062 421.141 468.43 430.217 471.917 432.144C476.34 435.1 479.957 423.954 477.069 417.286Z" fill="#FDD1B1"/>
<path opacity="0.6" d="M394.261 144.986L362.374 164.376C362.374 164.376 362.816 170.522 362.92 176.59C376.164 174.09 387.912 166.524 394.677 160.143C394.391 151.914 394.261 144.986 394.261 144.986Z" fill="#E3A87D"/>
<path opacity="0.6" d="M325.503 318.177C341.766 321.094 386.416 324.414 405.371 317.135C405.749 313.463 406.022 311.119 406.022 311.119C406.022 311.119 353.917 315.364 325.581 312.421C325.581 312.434 325.555 314.778 325.503 318.177Z" fill="#E3A87D"/>
<path opacity="0.6" d="M194.507 370.929C199.125 370.421 199.463 373.025 198.93 375.317C198.93 375.317 203.9 367.608 195.274 368.493C186.649 369.379 186.467 377.492 186.467 377.492C188.106 374.653 190.174 371.41 194.507 370.929Z" fill="#E3A87D"/>
<path opacity="0.6" d="M218.562 368.09C218.562 368.09 211.094 368.129 209.104 377.166C207.113 386.203 202.495 390.488 202.495 390.488C202.495 390.488 206.619 382.713 207.452 376.411C208.284 370.095 214.412 364.261 218.562 368.09Z" fill="#E3A87D"/>
<path opacity="0.6" d="M466.439 416.466C462.576 413.888 461.079 416.049 460.494 418.315C460.494 418.315 459.622 409.187 466.869 413.94C474.115 418.706 470.186 426.076 470.368 426.076C470.225 422.795 470.069 418.888 466.439 416.466Z" fill="#E3A87D"/>
<path opacity="0.6" d="M444.531 410.906C444.531 410.906 451.712 412.937 451.218 422.183C450.723 431.428 454.028 436.793 454.028 436.793C454.028 436.793 452.129 428.199 453.013 421.896C453.911 415.594 449.553 408.314 444.531 410.906Z" fill="#E3A87D"/>
<path opacity="0.6" d="M319.922 251.479C319.922 251.479 319.922 235.111 319.922 227.141C323.358 231.36 324.242 239.317 324.242 239.317L319.922 251.479Z" fill="#E3A87D"/>
<path opacity="0.6" d="M412.722 260.347C412.722 260.347 408.845 242.416 407.856 240.749C407.518 248.718 407.856 262.196 407.856 262.196C407.856 262.196 410.289 262.339 412.722 260.347Z" fill="#E3A87D"/>
<path d="M316.28 101.936C316.28 101.936 305.804 103.155 306.891 115.384C308.142 129.451 313.87 137.982 316.28 136.704C319.616 137.982 324.684 144.231 324.684 144.231C324.684 144.231 339.281 168.139 357.417 166.811C375.553 165.482 391.919 153.528 398.112 146.002C405.189 138.918 407.851 132.571 410.336 133.873C414.44 136.025 420.912 128.943 422.65 121.547C425.645 108.81 420.723 98.1592 408.728 105.712C402.978 103.941 383.957 71.1779 383.957 71.1779C383.957 71.1779 331.761 77.3763 331.761 78.7045C331.761 80.0197 316.28 101.936 316.28 101.936Z" fill="#FDD1B1"/>
<path opacity="0.7" d="M408.741 105.699C405.82 91.1428 398.775 78.6519 383.97 71.1648C365.589 61.8688 341.783 71.1648 331.774 78.6914C321.766 86.2181 316.293 101.935 316.293 101.935C316.293 101.935 314.953 102.3 313.157 103.225C311.245 113.759 310.842 124.88 311.687 135.506C313.639 136.443 315.421 136.691 316.293 136.691C318.947 136.691 324.697 144.218 324.697 144.218C324.697 144.218 329.048 149.327 330.7 151.541C327.416 136.691 328.492 111.275 335.626 100.182C335.626 100.182 345.478 98.1276 356.545 88.2625C354.098 99.3602 350.403 104.291 350.403 104.291C350.403 104.291 369.753 98.1062 380.369 81.2819C378.158 94.1215 388.394 101.545 396.356 105.087C397.175 109.501 397.058 130.024 393.285 150.872C395.25 149.153 396.889 147.473 398.125 145.989C405.202 138.905 405.82 141.68 405.82 141.68C405.82 141.68 407.274 143.665 408.741 142.091C410.836 132.442 411.156 124.012 411.977 111.275C416.082 105.523 419.366 104.702 422.24 107.167C421.008 103.88 415.727 101.31 408.741 105.699Z" fill="#EEB892"/>
<path d="M428.217 79.8895C440.082 81.1526 439.379 59.2108 434.722 49.5485C427.319 34.1957 397.891 26.2263 380.64 33.5316C370.075 38.0111 369.217 44.0923 370.141 48.1421C367.369 45.6029 364.273 41.1754 364.273 33.9743C361.177 36.1881 361.19 48.2724 369.36 51.02C370.18 51.2804 370.869 51.4497 371.455 51.5539C371.78 52.1268 422.232 82.9106 422.232 82.9106C422.232 82.9106 435.06 87.1166 434.175 97.9639C436.426 96.271 437.402 84.7206 428.217 79.8895Z" fill="#60473D"/>
<path opacity="0.6" d="M414.933 67.1802C416.247 66.5421 434.188 60.0572 427.319 40.8109L425.432 39.4436C425.432 39.4436 436.166 59.8749 407.401 62.7528C405.865 64.5238 414.933 67.1802 414.933 67.1802Z" fill="#60473D"/>
<path opacity="0.6" d="M420.398 36.5136C420.398 36.5136 437.141 53.0124 404.135 57.9867C401.208 58.9764 400.115 56.2678 400.115 56.2678C400.115 56.2678 433.056 53.2988 418.043 35.4198C419.721 37.4121 420.398 36.5136 420.398 36.5136Z" fill="#60473D"/>
<path opacity="0.6" d="M408.429 32.2815C408.429 32.2815 389.72 29.9896 387.951 55.226C385.297 54.7833 384.412 53.3118 384.412 53.3118C384.412 53.3118 383.033 34.1306 402.964 31.2788C406.087 31.6955 408.429 32.2815 408.429 32.2815Z" fill="#60473D"/>
<path d="M390.163 53.455C390.163 53.455 345.097 37.8548 323.864 71.5164C302.632 105.165 310.308 167.37 331.332 183.192C329.12 174.78 322.928 130.506 331.774 97.2867C331.774 97.2867 345.487 95.073 356.545 85.7753C351.68 96.8439 349.468 99.5004 349.468 99.5004C349.468 99.5004 371.585 93.302 382.201 76.4777C379.989 89.3173 388.394 99.0577 396.356 102.6C397.683 109.684 396.577 158.385 381.758 183.192C389.721 182.307 414.491 157.513 411.837 105.699C414.049 102.6 421.419 101.825 423.061 110.043C429.218 95.2515 432.185 61.8672 390.163 53.455Z" fill="#855B49"/>
<path opacity="0.6" d="M331.761 97.2867C331.761 97.2867 337.291 72.9358 355.426 65.4092C347.621 70.1882 338.188 83.3794 335.521 96.4273C333.18 97.0133 331.761 97.2867 331.761 97.2867Z" fill="#60473D"/>
<path opacity="0.5" d="M396.357 102.6C396.357 102.6 398.126 81.1265 391.932 71.1648C395.446 81.3479 393.481 101.05 393.481 101.05L396.357 102.6Z" fill="#C29581"/>
<path opacity="0.6" d="M411.838 105.699C411.838 105.699 412.501 92.6379 409.847 85.1112C414.271 90.2028 414.518 103.772 414.518 103.772C414.518 103.772 412.944 103.928 411.838 105.699Z" fill="#60473D"/>
<path d="M324.28 399.277C324.28 399.277 327.559 388.873 314.939 387.206C302.332 385.539 297.35 383.547 290.389 376.906C283.416 370.264 281.426 372.387 274.791 375.317C269.483 372.595 261.416 373.259 260.311 381.554C264.279 380.526 274.426 380.838 281.764 385.891C289.24 390.668 321.668 408.746 321.668 408.746C321.668 408.746 323.981 400.84 324.28 399.277Z" fill="#FACBAC"/>
<path d="M381.303 374.957C375.552 375.843 354.411 395.323 324.28 398.865C322.407 400.48 321.314 403.058 320.677 405.155C311.609 399.933 303.269 395.089 299.34 392.667C288.386 385.909 274.452 376.168 260.298 381.156C258.476 381.794 256.603 382.367 254.716 382.875C249.812 378.903 236.06 378.161 233.641 381.494C244.595 380.83 249.552 384.112 249.552 384.112C249.552 384.112 249.591 384.099 249.643 384.086C238.649 386.43 228.658 386.807 228.658 386.807C230.986 388.461 246.247 389.464 254.873 386.807C276.105 377.835 284.405 388.461 294.371 393.787C298.417 395.949 353.592 426.862 353.592 426.862L355.426 425C355.426 425 339.294 415.859 323.981 407.069C324.215 405.233 325.035 403.058 327.325 401.314C333.517 400.207 356.519 395.115 378.206 379.84C382.408 378.291 418.901 388.031 420.67 386.482C420.684 386.469 387.053 374.072 381.303 374.957Z" fill="#86BDA9"/>
<path d="M348.761 441.205C348.761 441.205 377.374 448.2 388.602 454.62C395.575 458.605 403.476 447.339 400.484 442.026C403.768 444.903 407.051 437.918 402.126 435.453C395.147 430.933 393.916 433.933 384.474 431.755C375.033 429.576 361.186 426.246 354.919 424.77C352.045 426.002 348.761 429.251 348.761 441.205Z" fill="#FDD1B1"/>
<path d="M345.799 191.891C345.799 191.891 339.502 191.578 333.491 195.446C329.562 208.194 324.241 230.123 321.587 237.09C316.605 245.059 309.241 264.761 313.925 278.161C318.608 291.56 321.926 300.858 319.597 311.158C323.253 314.153 391.932 321.459 409.847 309.491C410.185 292.55 414.036 270.947 414.036 270.947L412.735 260.672C412.735 260.672 400.896 269.97 402.886 247.052C404.877 224.133 410.562 204.874 414.517 197.568C410.952 193.245 404.89 192.203 404.89 192.203C404.89 192.203 397.591 205.876 394.274 228.131C392.934 229.797 347.152 237.103 339.528 222.154C339.502 207.543 345.799 191.891 345.799 191.891Z" fill="white"/>
<path opacity="0.45" d="M355.765 269.644C355.765 269.644 359.147 286.586 378.532 289.906C376.658 293.227 352.447 286.911 355.765 269.644Z" fill="#CBDBE9"/>
<path d="M320.027 367.248C320.027 367.248 328.886 370.517 333.193 376.833C333.518 371.845 320.235 363.55 320.235 363.55L320.027 367.248Z" fill="#86BDA9"/>
<path d="M412.722 370.929C412.722 370.929 403.758 371.697 395.159 376.281C394.912 372.595 411.278 367.947 412.722 368.272C412.722 370.929 412.722 370.929 412.722 370.929Z" fill="#86BDA9"/>
<path d="M340.166 385.805C340.166 385.805 345.838 392.211 347.152 395.818C344.381 396.782 344.381 396.782 344.381 396.782L340.166 385.805Z" fill="#86BDA9"/>
<path d="M345.474 114.554C343.587 117.692 336.627 120.296 335.807 114.866C335.547 113.173 332.997 113.903 333.244 115.569C333.7 118.604 335.729 120.83 338.943 120.622C342.039 120.414 344.758 118.122 346.293 115.556C347.178 114.085 346.358 113.095 345.474 114.554Z" fill="#60473D"/>
<path d="M384.373 117.106C380.835 121.364 371.663 123.539 369.971 116.155C369.594 114.489 367.031 115.192 367.408 116.859C369.542 126.208 380.392 124.073 385.31 118.174C386.416 116.885 385.479 115.791 384.373 117.106Z" fill="#60473D"/>
<path d="M347.516 132.85C348.011 134.49 349.793 134.308 349.298 132.667C348.323 129.451 350.313 128.409 352.525 126.873C353.839 125.948 354.646 124.477 355.374 123.083C357.222 119.502 355.751 114.931 356.233 111.038C356.441 109.345 355.153 109.358 354.945 111.038C354.281 116.351 354.594 122.68 349.364 125.727C346.488 127.38 346.644 129.972 347.516 132.85Z" fill="#EEB892"/>
<path opacity="0.6" d="M362.946 142.785C352.551 146.991 351.679 144.517 346.697 141.965C345.174 141.184 343.834 143.475 345.357 144.257C350.86 147.056 357.052 146.197 362.946 145.429C364.624 145.233 364.637 142.564 362.946 142.785Z" fill="#C48F6A"/>
<path d="M370.284 106.402C373.12 105.113 375.8 105.803 377.855 106.845C379.378 107.613 380.718 105.321 379.195 104.553C376.203 103.029 372.04 102.756 368.944 104.11C367.382 104.8 368.735 107.105 370.284 106.402Z" fill="#A47865"/>
<path d="M340.738 105.438C342.65 104.722 345.213 105.074 347.113 105.712C348.739 106.259 349.428 103.694 347.815 103.147C345.525 102.365 342.351 102.001 340.035 102.873C338.448 103.472 339.138 106.037 340.738 105.438Z" fill="#A47865"/>
<g opacity="0.6" filter="url(#filter2_f_33_452)">
<path d="M118.064 469.144C138.179 469.144 231.707 474.845 271.999 481.059C247.37 500.781 204.832 528.309 168.965 544.333C105.156 543.09 32.8615 532.689 6 527.899C6 527.899 90.5614 475.718 118.064 469.144Z" fill="#E5C8C8"/>
</g>
<path d="M263.693 475.312C263.693 475.312 251.061 470.833 160.121 463.332C131.5 470.95 173.157 528.207 173.157 528.207C173.157 528.207 261.807 477.838 263.693 475.312Z" fill="#E6F6FF"/>
<path d="M173.353 534.9C173.353 534.9 262.08 484.662 264.383 482.149C265.008 480.885 264.942 475.638 263.681 475.325C262.419 475.013 171.037 529.236 171.037 529.236L173.353 534.9Z" fill="#C4DDFB"/>
<path d="M171.05 516.943C171.05 516.943 216.168 493.946 216.48 492.058C216.792 490.17 164.232 484.115 164.232 484.115L171.05 516.943Z" fill="#7E93A5"/>
<path d="M164.233 478.515C164.233 478.515 189.394 481.458 191.528 481.094C193.674 480.716 203.51 473.736 201.597 473.164C199.698 472.591 162.164 468.736 162.164 468.736L164.233 478.515Z" fill="#7E93A5"/>
<path d="M7.80175 401.66C3.70364 404.721 22.9062 522.308 26.6921 524.196C30.465 526.084 170.842 537.426 173.366 534.913C175.89 532.387 153.226 408.901 150.078 408.262C146.917 407.624 11.5746 398.835 7.80175 401.66Z" fill="#9FC4E2"/>
<defs>
<filter id="filter0_f_33_452" x="33.866" y="0.666626" width="512.134" height="437.412" filterUnits="userSpaceOnUse" color-interpolation-filters="sRGB">
<feFlood flood-opacity="0" result="BackgroundImageFix"/>
<feBlend mode="normal" in="SourceGraphic" in2="BackgroundImageFix" result="shape"/>
<feGaussianBlur stdDeviation="6" result="effect1_foregroundBlur_33_452"/>
</filter>
<filter id="filter1_f_33_452" x="155.969" y="402.083" width="322.265" height="75.0828" filterUnits="userSpaceOnUse" color-interpolation-filters="sRGB">
<feFlood flood-opacity="0" result="BackgroundImageFix"/>
<feBlend mode="normal" in="SourceGraphic" in2="BackgroundImageFix" result="shape"/>
<feGaussianBlur stdDeviation="2.5" result="effect1_foregroundBlur_33_452"/>
</filter>
<filter id="filter2_f_33_452" x="0" y="463.144" width="277.999" height="87.1893" filterUnits="userSpaceOnUse" color-interpolation-filters="sRGB">
<feFlood flood-opacity="0" result="BackgroundImageFix"/>
<feBlend mode="normal" in="SourceGraphic" in2="BackgroundImageFix" result="shape"/>
<feGaussianBlur stdDeviation="3" result="effect1_foregroundBlur_33_452"/>
</filter>
</defs>
</svg>
