<svg width="126" height="125" fill="none" xmlns="http://www.w3.org/2000/svg"><path d="M118.315 36.768s-.697-1.706-2.705-2.665c-6.584-3.144-19.267-5.59-31.483-.596-13.343 5.454-20.718 16.976-23.058 23.967-.485 1.45.02 2.685.02 2.685s.505 1.236 1.866 1.93c6.567 3.35 19.901 6.408 33.245.954 12.216-4.993 19.555-15.623 22.051-22.478.761-2.091.064-3.797.064-3.797z" fill="#CEABFB"/><path d="M96.154 10.164s-1.52-1.042-3.725-.739c-7.228.993-19.166 5.924-26.625 16.811-8.147 11.892-7.972 25.572-6.083 32.698.392 1.477 1.493 2.231 1.493 2.231s1.102.755 2.62.587c7.327-.813 20.147-5.59 28.293-17.482 7.46-10.888 7.745-23.801 6.06-30.9-.513-2.165-2.033-3.206-2.033-3.206z" fill="#E1C8F0"/><path d="M6.195 36.768s.698-1.706 2.705-2.665c6.584-3.144 19.267-5.59 31.483-.596 13.344 5.454 20.718 16.976 23.059 23.967.485 1.45-.02 2.685-.02 2.685s-.506 1.236-1.867 1.93c-6.567 3.35-19.901 6.408-33.244.954C16.094 58.05 8.756 47.42 6.26 40.565c-.762-2.091-.065-3.797-.065-3.797z" fill="#E1C8F0"/><path d="M28.356 10.164s1.52-1.042 3.725-.739c7.228.993 19.166 5.924 26.625 16.811 8.147 11.892 7.972 25.571 6.083 32.698-.391 1.477-1.493 2.231-1.493 2.231s-1.101.755-2.62.586c-7.327-.812-20.147-5.59-28.293-17.481-7.459-10.888-7.745-23.801-6.06-30.9.513-2.165 2.033-3.206 2.033-3.206z" fill="#ECDAF3"/><path d="M61.904 0v62s-1.34 0-2.5-1c-5.602-4.825-13.5-16.044-13.5-30.5 0-13.235 7.082-24.081 12.5-29 1.652-1.5 3.5-1.5 3.5-1.5z" fill="#F7EBF5"/><path d="M61.904 0v62s1.339 0 2.5-1c5.602-4.825 13.5-16.044 13.5-30.5 0-13.235-7.083-24.081-12.5-29-1.652-1.5-3.5-1.5-3.5-1.5z" fill="#ECDAF3"/><path d="M9.904 86.5c-4.8 4.4-9 14.5-9 19L.532 120c0 1.835 2.385 6.681 6.372 3 6.5-6 13.5-8.5 22-8.5l42.5-.5c12.166-4.833 34.743-18.11 50-21.5 4.5-1 7-9-2-10.5s-22 3.5-32 7.5c-8 3.2-17.334 2.667-21 2 12 0 11.5-12.5 8-12.5h-44.5c-11 0-14 2-20 7.5z" fill="#FFD6BA"/><path d="M55.404 91.5h11.5c6 1.2 11.833.5 14 0-1 3.5-7.5 9-15.5 9.5h-20s-13 0-8-5c2.86-2.86 14.166-4.333 18-4.5z" fill="#FEB55E"/><path d="M69.404 84h-9.5s-.5-1.5.5-3 2.5-2 2.5-2h11.5c.5 1-2 5-5 5zm43.5 7.5l7-2c3-.5 4.5 1.5 2 3l-11.5 3.5c-.742-.836-.398-3.724 2.5-4.5z" fill="#FFDFB7"/></svg>