<svg width="124" height="123" fill="none" xmlns="http://www.w3.org/2000/svg"><path d="M41.444 19.454C41.444 8.71 50.094 0 60.763 0c10.67 0 19.319 8.71 19.319 19.454v3.765c0 10.745-8.65 19.454-19.32 19.454-10.669 0-19.318-8.71-19.318-19.454v-3.765z" fill="#EDC0A1"/><path d="M32.72 89.483c0-14.068 11.636-25.473 25.991-25.473h4.104c14.355 0 25.991 11.405 25.991 25.473v8.044C88.806 111.595 77.17 123 62.815 123H58.71c-14.355 0-25.992-11.405-25.992-25.473v-8.044z" fill="#9FC4E2"/><path d="M35.212 87.857c0-13.17 10.603-23.847 23.681-23.847h3.74c13.078 0 23.68 10.677 23.68 23.847v7.53c0 13.171-10.602 23.848-23.68 23.848h-3.74c-13.078 0-23.68-10.677-23.68-23.847v-7.53z" fill="#E0A984"/><path d="M32.72 74.051c0-13.17 10.602-23.847 23.68-23.847h8.725c13.079 0 23.681 10.677 23.681 23.847v12.551c0 13.17-10.602 23.847-23.68 23.847H56.4c-13.08 0-23.682-10.677-23.682-23.847V74.051z" fill="#EDC0A1"/><path d="M23.995 31.378c0-13.17 10.602-23.847 23.681-23.847H73.85c13.079 0 23.681 10.676 23.681 23.847v22.591c0 13.17-10.602 23.847-23.681 23.847H47.676c-13.079 0-23.681-10.676-23.681-23.847V31.378z" fill="#7D4A4A"/><path d="M17.763 57.735c0-3.466 2.79-6.276 6.232-6.276s6.232 2.81 6.232 6.276v36.398c0 3.466-2.79 6.275-6.232 6.275s-6.232-2.81-6.232-6.275V57.735z" fill="#EDC0A1"/><path d="M25.241 58.99a2.502 2.502 0 00-2.492-2.51 2.502 2.502 0 00-2.493 2.51v13.806a2.501 2.501 0 002.492 2.51 2.501 2.501 0 002.493-2.51V58.99z" fill="#DDBCA5" opacity=".4"/><path d="M25.241 58.99a2.502 2.502 0 00-2.492-2.51 2.502 2.502 0 00-2.493 2.51v5.02a2.501 2.501 0 002.492 2.51 2.501 2.501 0 002.493-2.51v-5.02z" fill="#D29191" opacity=".4"/><path d="M22.748 85.347a1.25 1.25 0 00-1.246-1.255 1.25 1.25 0 00-1.246 1.255v7.53a1.25 1.25 0 001.246 1.256 1.25 1.25 0 001.247-1.255v-7.531z" fill="#A87A5B"/><path d="M103.763 57.735c0-3.466-2.79-6.276-6.232-6.276S91.3 54.27 91.3 57.735v36.398c0 3.466 2.79 6.275 6.232 6.275s6.232-2.81 6.232-6.275V57.735z" fill="#EDC0A1"/><path d="M101.27 58.99a2.501 2.501 0 00-2.492-2.51 2.502 2.502 0 00-2.493 2.51v5.02a2.501 2.501 0 002.493 2.51 2.501 2.501 0 002.492-2.51v-5.02z" fill="#D29191" opacity=".4"/><path d="M96.285 58.99a2.502 2.502 0 012.492-2.51 2.501 2.501 0 012.493 2.51v13.806a2.501 2.501 0 01-2.493 2.51 2.501 2.501 0 01-2.492-2.51V58.99z" fill="#DDBCA5" opacity=".4"/><path d="M98.777 85.347a1.25 1.25 0 011.247-1.255 1.25 1.25 0 011.246 1.255v7.53a1.25 1.25 0 01-1.246 1.256 1.25 1.25 0 01-1.247-1.255v-7.531z" fill="#A87A5B"/><path d="M26.488 47.694c0-13.17 10.602-23.847 23.68-23.847h21.19c13.078 0 23.68 10.677 23.68 23.847v27.612c0 13.17-10.602 23.847-23.68 23.847h-21.19c-13.078 0-23.68-10.677-23.68-23.847V47.694z" fill="#FFD6BA"/><path d="M45.183 91.622c0-3.465 2.937-6.275 6.56-6.275h18.04c3.623 0 6.56 2.81 6.56 6.275 0 3.466-2.937 6.276-6.56 6.276h-18.04c-3.623 0-6.56-2.81-6.56-6.276z" fill="#FFE0CA"/><path d="M51.415 89.112c0-2.08 1.762-3.765 3.936-3.765h10.824c2.174 0 3.936 1.686 3.936 3.765 0 2.08-1.763 3.766-3.936 3.766H55.35c-2.174 0-3.936-1.686-3.936-3.766z" fill="#FFE9D9"/><path d="M32.72 67.775c0-2.772 2.232-5.02 4.985-5.02h11.217c2.754 0 4.986 2.248 4.986 5.02 0 2.773-2.232 5.02-4.986 5.02H37.705c-2.753 0-4.986-2.247-4.986-5.02zm36.145 0c0-2.772 2.232-5.02 4.985-5.02h11.217c2.754 0 4.986 2.248 4.986 5.02 0 2.773-2.232 5.02-4.986 5.02H73.85c-2.753 0-4.985-2.247-4.985-5.02z" fill="#FFE0CA"/><path d="M61.386 76.561c-4.072 0-6.112-2.033-6.975-3.64-.365-.68.195-1.38.964-1.38h12.062c.755 0 1.327.68.993 1.362-.82 1.676-2.859 3.658-7.044 3.658z" fill="#EDC0A1"/><path d="M65.125 56.48c0-2.08-1.674-3.766-3.739-3.766s-3.739 1.686-3.739 3.766v13.806c0 2.08 1.674 3.765 3.74 3.765 2.064 0 3.738-1.686 3.738-3.765V56.48z" fill="#FFE9D9"/><path opacity=".5" d="M68.865 40.163c0-4.159-3.349-7.53-7.479-7.53s-7.478 3.371-7.478 7.53c0 4.16 3.348 7.53 7.478 7.53s7.479-3.37 7.479-7.53z" fill="#fff"/><path d="M65.125 40.163c0-2.08-1.674-3.765-3.739-3.765s-3.739 1.686-3.739 3.765v1.255c0 2.08 1.674 3.766 3.74 3.766 2.064 0 3.738-1.686 3.738-3.766v-1.255z" fill="#fff"/><path d="M44.56 61.5c-4.985 0-6.647-2.72-6.855-3.765h13.71c-.207 1.255-1.87 3.765-6.855 3.765z" fill="#2B6B54"/><path fill-rule="evenodd" clip-rule="evenodd" d="M44.035 46.441c-4.494.074-8.737 1.858-10.93 4.896a1.24 1.24 0 01-1.742.277 1.26 1.26 0 01-.275-1.753c2.792-3.866 7.897-5.847 12.906-5.93 5.023-.083 10.292 1.736 13.404 5.915a1.261 1.261 0 01-.25 1.757 1.24 1.24 0 01-1.744-.251c-2.497-3.352-6.888-4.985-11.369-4.91z" fill="#000"/><path fill-rule="evenodd" clip-rule="evenodd" d="M30.85 56.48c0-1.04.837-1.883 1.87-1.883h14.977v1.883l.001-1.883h.035a4.464 4.464 0 01.283.01c.179.009.427.026.728.06a13.6 13.6 0 012.34.479c1.802.539 4.155 1.677 5.657 4.103a1.89 1.89 0 01-.598 2.594c-.876.55-2.03.28-2.575-.602-.83-1.34-2.205-2.084-3.549-2.486a9.894 9.894 0 00-2.192-.388 4.771 4.771 0 00-.117-.004H32.72a1.876 1.876 0 01-1.87-1.883z" fill="#7D4A4A"/><path d="M78.212 61.5c4.986 0 6.648-2.72 6.855-3.765h-13.71c.208 1.255 1.87 3.765 6.855 3.765z" fill="#2B6B54"/><path fill-rule="evenodd" clip-rule="evenodd" d="M78.737 46.441c4.494.074 8.737 1.858 10.93 4.896a1.24 1.24 0 001.742.277 1.26 1.26 0 00.275-1.753c-2.792-3.866-7.897-5.847-12.906-5.93-5.023-.083-10.292 1.736-13.404 5.915a1.26 1.26 0 00.25 1.757 1.24 1.24 0 001.745-.251c2.496-3.352 6.887-4.985 11.368-4.91z" fill="#000"/><path fill-rule="evenodd" clip-rule="evenodd" d="M90.676 56.48c0-1.04-.837-1.883-1.87-1.883H74.662v1.883l-.001-1.883h-.036a6.077 6.077 0 00-.275.01c-.173.01-.412.027-.7.062a12.41 12.41 0 00-2.245.485c-1.736.55-3.977 1.707-5.397 4.136a1.89 1.89 0 00.663 2.577c.89.528 2.035.229 2.56-.667.78-1.337 2.061-2.063 3.296-2.454a8.703 8.703 0 012.023-.38 3.81 3.81 0 01.105-.004h14.153a1.876 1.876 0 001.869-1.882z" fill="#7D4A4A"/><path fill-rule="evenodd" clip-rule="evenodd" d="M63.256 80.326c0 1.04-.837 1.883-1.87 1.883h-8.32v-1.883c0 1.883-.002 1.883-.003 1.883h-.045a2.767 2.767 0 01-.247-.015 4.987 4.987 0 01-.544-.081 5.985 5.985 0 01-1.63-.597c-1.287-.694-2.64-2.007-3.441-4.339a1.886 1.886 0 011.155-2.395c.975-.34 2.04.18 2.378 1.163.493 1.434 1.212 2.003 1.672 2.25.251.136.47.199.612.228.065.013.112.019.133.02h8.28c1.033 0 1.87.844 1.87 1.883z" fill="#D29191"/><path fill-rule="evenodd" clip-rule="evenodd" d="M59.517 80.326c0 1.04.837 1.883 1.87 1.883h8.32v-1.883c0 1.883.001 1.883.002 1.883h.045a2.777 2.777 0 00.247-.015c.142-.013.326-.037.544-.081a5.985 5.985 0 001.63-.597c1.288-.694 2.64-2.007 3.442-4.339a1.886 1.886 0 00-1.155-2.395c-.976-.34-2.04.18-2.379 1.163-.493 1.434-1.212 2.003-1.672 2.25-.25.136-.47.199-.612.228a1.324 1.324 0 01-.133.02h-8.28c-1.032 0-1.87.844-1.87 1.883z" fill="#D29191"/><path d="M27.734 48.321c0 1.733-1.395 3.138-3.116 3.138s-3.116-1.405-3.116-3.138c0-1.732 1.395-3.137 3.116-3.137 1.72 0 3.116 1.405 3.116 3.137zm0-7.531c0 1.734-1.395 3.139-3.116 3.139s-3.116-1.405-3.116-3.138c0-1.733 1.395-3.138 3.116-3.138 1.72 0 3.116 1.405 3.116 3.138zm66.058 7.531c0 1.733 1.395 3.138 3.116 3.138 1.72 0 3.116-1.405 3.116-3.138 0-1.732-1.395-3.137-3.116-3.137s-3.116 1.405-3.116 3.137zM31.473 34.515c0 1.733-1.395 3.138-3.116 3.138s-3.116-1.405-3.116-3.138c0-1.733 1.395-3.137 3.116-3.137 1.72 0 3.116 1.404 3.116 3.137zm7.478-11.295c0 1.732-1.395 3.137-3.116 3.137-1.72 0-3.116-1.405-3.116-3.138 0-1.733 1.395-3.137 3.116-3.137s3.116 1.404 3.116 3.137zm-6.231-3.766c0 1.733-1.396 3.138-3.116 3.138-1.721 0-3.116-1.405-3.116-3.138 0-1.733 1.395-3.138 3.116-3.138 1.72 0 3.115 1.405 3.115 3.138zm0 7.531c0 1.733-1.396 3.137-3.116 3.137-1.721 0-3.116-1.404-3.116-3.137s1.395-3.138 3.116-3.138c1.72 0 3.115 1.405 3.115 3.138zm18.695-3.765c0 1.732-1.395 3.137-3.116 3.137-1.72 0-3.116-1.405-3.116-3.138 0-1.733 1.395-3.137 3.116-3.137 1.72 0 3.116 1.404 3.116 3.137zm-12.464-7.531c0 1.733-1.395 3.137-3.116 3.137-1.72 0-3.116-1.404-3.116-3.137s1.395-3.138 3.116-3.138 3.116 1.405 3.116 3.138zm12.464-7.531c0 1.733-1.395 3.138-3.116 3.138-1.72 0-3.116-1.405-3.116-3.138 0-1.733 1.395-3.138 3.116-3.138 1.72 0 3.116 1.405 3.116 3.138zm-6.232 11.296c0 1.733-1.395 3.138-3.116 3.138-1.72 0-3.116-1.405-3.116-3.138 0-1.733 1.395-3.138 3.116-3.138s3.116 1.405 3.116 3.138zm12.464 0c0 1.733-1.395 3.138-3.116 3.138-1.72 0-3.116-1.405-3.116-3.138 0-1.733 1.395-3.138 3.116-3.138 1.72 0 3.116 1.405 3.116 3.138zm-12.464-7.53c0 1.732-1.395 3.137-3.116 3.137-1.72 0-3.116-1.405-3.116-3.137 0-1.733 1.395-3.138 3.116-3.138s3.116 1.405 3.116 3.138zm6.232 3.765c0 1.733-1.395 3.137-3.116 3.137-1.72 0-3.116-1.404-3.116-3.137s1.395-3.138 3.116-3.138c1.72 0 3.116 1.405 3.116 3.138zm6.232-3.765c0 1.732-1.395 3.137-3.116 3.137-1.72 0-3.116-1.405-3.116-3.137 0-1.733 1.395-3.138 3.116-3.138 1.72 0 3.116 1.405 3.116 3.138zM93.792 40.79c0 1.734 1.395 3.139 3.116 3.139 1.72 0 3.116-1.405 3.116-3.138 0-1.733-1.395-3.138-3.116-3.138s-3.116 1.405-3.116 3.138zM63.879 8.158c0 1.733-1.395 3.138-3.116 3.138s-3.116-1.405-3.116-3.138c0-1.733 1.395-3.138 3.116-3.138 1.72 0 3.116 1.405 3.116 3.138zm26.174 26.357c0 1.733 1.395 3.138 3.116 3.138 1.72 0 3.116-1.405 3.116-3.138 0-1.733-1.395-3.137-3.116-3.137s-3.116 1.404-3.116 3.137zM82.575 23.22c0 1.732 1.395 3.137 3.115 3.137 1.721 0 3.116-1.405 3.116-3.138 0-1.733-1.395-3.137-3.115-3.137a3.127 3.127 0 00-3.117 3.137zm6.231-3.766c0 1.733 1.395 3.138 3.116 3.138s3.116-1.405 3.116-3.138c0-1.733-1.395-3.138-3.116-3.138-1.72 0-3.116 1.405-3.116 3.138zm0 7.531c0 1.733 1.395 3.137 3.116 3.137s3.116-1.404 3.116-3.137-1.395-3.138-3.116-3.138c-1.72 0-3.116 1.405-3.116 3.138zM70.11 23.22c0 1.732 1.396 3.137 3.117 3.137 1.72 0 3.115-1.405 3.115-3.138 0-1.733-1.394-3.137-3.115-3.137-1.721 0-3.116 1.404-3.116 3.137zm12.465-7.531c0 1.733 1.395 3.137 3.115 3.137 1.721 0 3.116-1.404 3.116-3.137s-1.395-3.138-3.115-3.138c-1.721 0-3.117 1.405-3.117 3.138zM70.11 8.158c0 1.733 1.396 3.138 3.117 3.138 1.72 0 3.115-1.405 3.115-3.138 0-1.733-1.394-3.138-3.115-3.138-1.721 0-3.116 1.405-3.116 3.138zm6.233 11.296c0 1.733 1.395 3.138 3.115 3.138 1.721 0 3.117-1.405 3.117-3.138 0-1.733-1.396-3.138-3.117-3.138-1.72 0-3.115 1.405-3.115 3.138zm-12.464 0c0 1.733 1.395 3.138 3.116 3.138 1.72 0 3.116-1.405 3.116-3.138 0-1.733-1.395-3.138-3.116-3.138s-3.116 1.405-3.116 3.138zm12.464-7.53c0 1.732 1.395 3.137 3.115 3.137 1.721 0 3.117-1.405 3.117-3.137 0-1.733-1.396-3.138-3.117-3.138-1.72 0-3.115 1.405-3.115 3.138zm-6.233 3.765a3.127 3.127 0 003.117 3.137c1.72 0 3.115-1.404 3.115-3.137s-1.394-3.138-3.115-3.138c-1.721 0-3.116 1.405-3.116 3.138zm-6.231-3.765c0 1.732 1.395 3.137 3.116 3.137 1.72 0 3.116-1.405 3.116-3.137 0-1.733-1.395-3.138-3.116-3.138s-3.116 1.405-3.116 3.138zm0 3.765c0 1.733-1.395 3.137-3.116 3.137s-3.116-1.404-3.116-3.137 1.395-3.138 3.116-3.138c1.72 0 3.116 1.405 3.116 3.138zm0 7.531c0 1.732-1.395 3.137-3.116 3.137s-3.116-1.405-3.116-3.138c0-1.733 1.395-3.137 3.116-3.137 1.72 0 3.116 1.404 3.116 3.137z" fill="#4F2828"/></svg>