<svg width="124" height="123" viewBox="0 0 124 123" fill="none" xmlns="http://www.w3.org/2000/svg">
<path d="M41.4441 19.4541C41.4441 8.70989 50.0934 0 60.7629 0C71.4324 0 80.0818 8.70989 80.0818 19.4541V23.2194C80.0818 33.9636 71.4324 42.6735 60.7629 42.6735C50.0934 42.6735 41.4441 33.9636 41.4441 23.2194V19.4541Z" fill="#EDC0A1"/>
<path d="M32.7195 89.4831C32.7195 75.4148 44.3563 64.0102 58.711 64.0102H62.8149C77.1696 64.0102 88.8064 75.4148 88.8064 89.4831V97.5271C88.8064 111.595 77.1696 123 62.8149 123H58.711C44.3563 123 32.7195 111.595 32.7195 97.5271V89.4831Z" fill="#9FC4E2"/>
<path d="M35.2122 87.8571C35.2122 74.6868 45.8146 64.0102 58.8933 64.0102H62.6325C75.7112 64.0102 86.3136 74.6868 86.3136 87.8571V95.3877C86.3136 108.558 75.7112 119.235 62.6325 119.235H58.8933C45.8146 119.235 35.2122 108.558 35.2122 95.3877V87.8571Z" fill="#E0A984"/>
<path d="M32.7195 74.051C32.7195 60.8807 43.3219 50.2041 56.4006 50.2041H65.1253C78.204 50.2041 88.8064 60.8807 88.8064 74.051V86.6021C88.8064 99.7724 78.204 110.449 65.1253 110.449H56.4006C43.3219 110.449 32.7195 99.7724 32.7195 86.6021V74.051Z" fill="#EDC0A1"/>
<path d="M23.9949 31.3776C23.9949 18.2073 34.5973 7.53064 47.676 7.53064H73.8499C86.9287 7.53064 97.5311 18.2073 97.5311 31.3776V53.9694C97.5311 67.1397 86.9287 77.8164 73.8499 77.8164H47.676C34.5973 77.8164 23.9949 67.1397 23.9949 53.9694V31.3776Z" fill="#7D4A4A"/>
<path d="M17.7629 57.7347C17.7629 54.2688 20.553 51.4592 23.9948 51.4592C27.4366 51.4592 30.2267 54.2688 30.2267 57.7347V94.1326C30.2267 97.5985 27.4366 100.408 23.9948 100.408C20.553 100.408 17.7629 97.5985 17.7629 94.1326V57.7347Z" fill="#EDC0A1"/>
<g style="mix-blend-mode:multiply" opacity="0.4">
<path d="M25.2412 58.9898C25.2412 57.6035 24.1252 56.4796 22.7485 56.4796C21.3717 56.4796 20.2557 57.6035 20.2557 58.9898V72.7959C20.2557 74.1823 21.3717 75.3061 22.7485 75.3061C24.1252 75.3061 25.2412 74.1823 25.2412 72.7959V58.9898Z" fill="#DDBCA5"/>
</g>
<g style="mix-blend-mode:multiply" opacity="0.4">
<path d="M25.2412 58.9898C25.2412 57.6035 24.1252 56.4796 22.7485 56.4796C21.3717 56.4796 20.2557 57.6035 20.2557 58.9898V64.0102C20.2557 65.3966 21.3717 66.5204 22.7485 66.5204C24.1252 66.5204 25.2412 65.3966 25.2412 64.0102V58.9898Z" fill="#D29191"/>
</g>
<path d="M22.7485 85.347C22.7485 84.6538 22.1905 84.0919 21.5022 84.0919C20.8138 84.0919 20.2558 84.6538 20.2558 85.347V92.8776C20.2558 93.5707 20.8138 94.1327 21.5022 94.1327C22.1905 94.1327 22.7485 93.5707 22.7485 92.8776V85.347Z" fill="#A87A5B"/>
<path d="M103.763 57.7347C103.763 54.2688 100.973 51.4592 97.5311 51.4592C94.0893 51.4592 91.2992 54.2688 91.2992 57.7347V94.1326C91.2992 97.5985 94.0893 100.408 97.5311 100.408C100.973 100.408 103.763 97.5985 103.763 94.1326V57.7347Z" fill="#EDC0A1"/>
<g style="mix-blend-mode:multiply" opacity="0.4">
<path d="M101.27 58.9898C101.27 57.6035 100.154 56.4796 98.7775 56.4796C97.4008 56.4796 96.2848 57.6035 96.2848 58.9898V64.0102C96.2848 65.3966 97.4008 66.5204 98.7775 66.5204C100.154 66.5204 101.27 65.3966 101.27 64.0102V58.9898Z" fill="#D29191"/>
</g>
<g style="mix-blend-mode:multiply" opacity="0.4">
<path d="M96.2847 58.9898C96.2847 57.6035 97.4007 56.4796 98.7774 56.4796C100.154 56.4796 101.27 57.6035 101.27 58.9898V72.7959C101.27 74.1823 100.154 75.3061 98.7774 75.3061C97.4007 75.3061 96.2847 74.1823 96.2847 72.7959V58.9898Z" fill="#DDBCA5"/>
</g>
<path d="M98.7773 85.347C98.7773 84.6538 99.3354 84.0919 100.024 84.0919C100.712 84.0919 101.27 84.6538 101.27 85.347V92.8776C101.27 93.5707 100.712 94.1327 100.024 94.1327C99.3354 94.1327 98.7773 93.5707 98.7773 92.8776V85.347Z" fill="#A87A5B"/>
<path d="M26.4875 47.6939C26.4875 34.5236 37.09 23.8469 50.1687 23.8469H71.3571C84.4359 23.8469 95.0383 34.5236 95.0383 47.6939V75.3061C95.0383 88.4764 84.4359 99.153 71.3571 99.153H50.1687C37.09 99.153 26.4875 88.4764 26.4875 75.3061V47.6939Z" fill="#FFD6BA"/>
<path d="M45.1833 91.6224C45.1833 88.1566 48.1203 85.3469 51.7432 85.3469H69.7829C73.4058 85.3469 76.3428 88.1566 76.3428 91.6224C76.3428 95.0883 73.4058 97.8979 69.7829 97.8979H51.7432C48.1203 97.8979 45.1833 95.0883 45.1833 91.6224Z" fill="#FFE0CA"/>
<path d="M51.415 89.1122C51.415 87.0327 53.1772 85.3469 55.351 85.3469H66.1748C68.3485 85.3469 70.1107 87.0327 70.1107 89.1122C70.1107 91.1917 68.3485 92.8775 66.1748 92.8775H55.351C53.1772 92.8775 51.415 91.1917 51.415 89.1122Z" fill="#FFE9D9"/>
<path d="M32.7195 67.7755C32.7195 65.0028 34.9516 62.7551 37.705 62.7551H48.9224C51.6758 62.7551 53.9079 65.0028 53.9079 67.7755C53.9079 70.5482 51.6758 72.7959 48.9224 72.7959H37.705C34.9516 72.7959 32.7195 70.5482 32.7195 67.7755Z" fill="#FFE0CA"/>
<path d="M68.8645 67.7755C68.8645 65.0028 71.0966 62.7551 73.85 62.7551H85.0674C87.8208 62.7551 90.0529 65.0028 90.0529 67.7755C90.0529 70.5482 87.8208 72.7959 85.0674 72.7959H73.85C71.0966 72.7959 68.8645 70.5482 68.8645 67.7755Z" fill="#FFE0CA"/>
<path d="M61.3862 76.5612C57.3138 76.5612 55.2743 74.5284 54.4114 72.9215C54.0458 72.2406 54.6062 71.5408 55.3749 71.5408H67.4366C68.1919 71.5408 68.7639 72.2212 68.4299 72.9033C67.6094 74.5795 65.5713 76.5612 61.3862 76.5612Z" fill="#EDC0A1"/>
<path d="M65.1252 56.4796C65.1252 54.4001 63.4512 52.7143 61.3861 52.7143C59.321 52.7143 57.647 54.4001 57.647 56.4796V70.2857C57.647 72.3652 59.321 74.051 61.3861 74.051C63.4512 74.051 65.1252 72.3652 65.1252 70.2857V56.4796Z" fill="#FFE9D9"/>
<path opacity="0.5" d="M68.8645 40.1632C68.8645 36.0042 65.5164 32.6326 61.3862 32.6326C57.2561 32.6326 53.908 36.0042 53.908 40.1632C53.908 44.3223 57.2561 47.6939 61.3862 47.6939C65.5164 47.6939 68.8645 44.3223 68.8645 40.1632Z" fill="white"/>
<path d="M65.1252 40.1633C65.1252 38.0837 63.4512 36.3979 61.3861 36.3979C59.321 36.3979 57.647 38.0837 57.647 40.1633V41.4184C57.647 43.4979 59.321 45.1837 61.3861 45.1837C63.4512 45.1837 65.1252 43.4979 65.1252 41.4184V40.1633Z" fill="white"/>
<path d="M44.5602 61.5C39.5746 61.5 37.9128 58.7806 37.7051 57.7347H51.4152C51.2075 58.9898 49.5457 61.5 44.5602 61.5Z" fill="#2B6B54"/>
<path fill-rule="evenodd" clip-rule="evenodd" d="M44.0352 46.4412C39.5411 46.5153 35.298 48.2995 33.1043 51.337C32.6994 51.8976 31.9199 52.0215 31.3632 51.6138C30.8065 51.2061 30.6835 50.4212 31.0883 49.8606C33.8801 45.995 38.9848 44.014 43.9944 43.9313C49.0171 43.8484 54.2858 45.6674 57.3978 49.8457C57.8108 50.4003 57.6992 51.187 57.1485 51.6029C56.5978 52.0188 55.8166 51.9064 55.4036 51.3519C52.9069 47.9996 48.5162 46.3672 44.0352 46.4412Z" fill="black"/>
<path fill-rule="evenodd" clip-rule="evenodd" d="M30.8499 56.4796C30.8499 55.4398 31.6869 54.5969 32.7194 54.5969H47.6967V56.4796C47.6967 54.5969 47.6973 54.5969 47.698 54.5969L47.6996 54.5969L47.7029 54.5969L47.7112 54.597L47.7333 54.5972C47.7505 54.5974 47.7727 54.5977 47.7996 54.5984C47.8533 54.5997 47.926 54.6021 48.0157 54.6067C48.1948 54.6158 48.443 54.6334 48.7441 54.6677C49.3429 54.7358 50.1685 54.8716 51.084 55.1456C52.886 55.6847 55.2395 56.8234 56.7408 59.2491C57.287 60.1315 57.0194 61.2926 56.1431 61.8426C55.2668 62.3926 54.1137 62.1231 53.5676 61.2407C52.7384 59.901 51.3631 59.1571 50.019 58.7549C49.3615 58.5582 48.7596 58.4587 48.3243 58.4092C48.1082 58.3846 47.9377 58.3728 47.8273 58.3672C47.7722 58.3644 47.7325 58.3632 47.71 58.3626L47.6903 58.3622H32.7194C31.6869 58.3622 30.8499 57.5193 30.8499 56.4796Z" fill="#7D4A4A"/>
<path d="M78.2123 61.5C83.1978 61.5 84.8597 58.7806 85.0674 57.7347H71.3572C71.565 58.9898 73.2268 61.5 78.2123 61.5Z" fill="#2B6B54"/>
<path fill-rule="evenodd" clip-rule="evenodd" d="M78.737 46.4412C83.2311 46.5153 87.4742 48.2995 89.6679 51.337C90.0728 51.8976 90.8523 52.0215 91.409 51.6138C91.9657 51.2061 92.0888 50.4212 91.6839 49.8606C88.8921 45.995 83.7874 44.014 78.7778 43.9313C73.7552 43.8484 68.4864 45.6674 65.3745 49.8457C64.9614 50.4003 65.073 51.187 65.6237 51.6029C66.1744 52.0188 66.9556 51.9064 67.3686 51.3519C69.8654 47.9996 74.2561 46.3672 78.737 46.4412Z" fill="black"/>
<path fill-rule="evenodd" clip-rule="evenodd" d="M90.676 56.4796C90.676 55.4398 89.839 54.5969 88.8065 54.5969H74.6613V56.4796C74.6613 54.5969 74.6606 54.5969 74.6598 54.5969L74.6582 54.5969L74.6547 54.5969L74.6464 54.597L74.6242 54.5972C74.6071 54.5974 74.5853 54.5978 74.559 54.5984C74.5064 54.5998 74.4359 54.6023 74.3492 54.607C74.1761 54.6163 73.9373 54.6343 73.6482 54.6691C73.0734 54.7383 72.2817 54.8763 71.404 55.1544C69.6675 55.7045 67.4267 56.8609 66.0069 59.2898C65.4831 60.1859 65.7798 61.3399 66.6697 61.8673C67.5595 62.3948 68.7054 62.096 69.2292 61.1999C70.0104 59.8635 71.2913 59.1373 72.5261 58.7461C73.1341 58.5535 73.6906 58.4561 74.0924 58.4077C74.2917 58.3837 74.4483 58.3723 74.5487 58.3669C74.5987 58.3642 74.6343 58.363 74.6538 58.3625L74.669 58.3622H88.8065C89.839 58.3622 90.676 57.5193 90.676 56.4796Z" fill="#7D4A4A"/>
<path fill-rule="evenodd" clip-rule="evenodd" d="M63.2556 80.3265C63.2556 81.3663 62.4186 82.2092 61.3861 82.2092L53.0654 82.2092L53.0654 80.3265C53.0654 82.2092 53.0642 82.2092 53.0629 82.2092L53.0604 82.2092L53.0552 82.2091L53.0439 82.2091L53.0179 82.2086C52.999 82.2082 52.9772 82.2076 52.9525 82.2065C52.9033 82.2044 52.8425 82.2006 52.7713 82.1941C52.6294 82.1811 52.4447 82.1571 52.2275 82.1126C51.7941 82.0238 51.2206 81.8515 50.5976 81.516C49.3096 80.8223 47.9573 79.5086 47.1556 77.1772C46.8178 76.1947 47.3349 75.1224 48.3106 74.7822C49.2863 74.442 50.3511 74.9627 50.6889 75.9452C51.182 77.3791 51.9012 77.9481 52.361 78.1957C52.612 78.3309 52.8316 78.3939 52.9727 78.4228C53.0384 78.4363 53.0847 78.4418 53.1057 78.4439L61.386 78.4439C62.4186 78.4439 63.2556 79.2868 63.2556 80.3265Z" fill="#D29191"/>
<path fill-rule="evenodd" clip-rule="evenodd" d="M59.5166 80.3265C59.5166 81.3663 60.3536 82.2092 61.3862 82.2092L69.7069 82.2092L69.7069 80.3265C69.7069 82.2092 69.7081 82.2092 69.7093 82.2092L69.7118 82.2092L69.717 82.2091L69.7283 82.2091L69.7544 82.2086C69.7732 82.2082 69.795 82.2076 69.8197 82.2065C69.869 82.2044 69.9298 82.2006 70.0009 82.1941C70.1428 82.1811 70.3275 82.1571 70.5447 82.1126C70.9781 82.0238 71.5516 81.8515 72.1746 81.516C73.4626 80.8223 74.8149 79.5086 75.6166 77.1772C75.9544 76.1947 75.4374 75.1224 74.4617 74.7822C73.486 74.442 72.4211 74.9627 72.0833 75.9452C71.5902 77.3791 70.871 77.9481 70.4112 78.1957C70.1602 78.3309 69.9407 78.3939 69.7995 78.4228C69.7338 78.4363 69.6876 78.4418 69.6665 78.4439L61.3862 78.4439C60.3536 78.4439 59.5166 79.2868 59.5166 80.3265Z" fill="#D29191"/>
<path d="M27.7338 48.3214C27.7338 50.0543 26.3388 51.4592 24.6179 51.4592C22.897 51.4592 21.502 50.0543 21.502 48.3214C21.502 46.5885 22.897 45.1837 24.6179 45.1837C26.3388 45.1837 27.7338 46.5885 27.7338 48.3214Z" fill="#4F2828"/>
<path d="M27.7338 40.7908C27.7338 42.5237 26.3388 43.9285 24.6179 43.9285C22.897 43.9285 21.502 42.5237 21.502 40.7908C21.502 39.0578 22.897 37.653 24.6179 37.653C26.3388 37.653 27.7338 39.0578 27.7338 40.7908Z" fill="#4F2828"/>
<path d="M93.7918 48.3214C93.7918 50.0543 95.1868 51.4592 96.9077 51.4592C98.6286 51.4592 100.024 50.0543 100.024 48.3214C100.024 46.5885 98.6286 45.1837 96.9077 45.1837C95.1868 45.1837 93.7918 46.5885 93.7918 48.3214Z" fill="#4F2828"/>
<path d="M31.4729 34.5153C31.4729 36.2482 30.0778 37.653 28.3569 37.653C26.636 37.653 25.241 36.2482 25.241 34.5153C25.241 32.7823 26.636 31.3775 28.3569 31.3775C30.0778 31.3775 31.4729 32.7823 31.4729 34.5153Z" fill="#4F2828"/>
<path d="M38.9511 23.2194C38.9511 24.9523 37.5561 26.3571 35.8352 26.3571C34.1143 26.3571 32.7192 24.9523 32.7192 23.2194C32.7192 21.4864 34.1143 20.0816 35.8352 20.0816C37.5561 20.0816 38.9511 21.4864 38.9511 23.2194Z" fill="#4F2828"/>
<path d="M32.7194 19.454C32.7194 21.187 31.3244 22.5918 29.6035 22.5918C27.8826 22.5918 26.4875 21.187 26.4875 19.454C26.4875 17.7211 27.8826 16.3163 29.6035 16.3163C31.3244 16.3163 32.7194 17.7211 32.7194 19.454Z" fill="#4F2828"/>
<path d="M32.7194 26.9847C32.7194 28.7176 31.3244 30.1224 29.6035 30.1224C27.8826 30.1224 26.4875 28.7176 26.4875 26.9847C26.4875 25.2517 27.8826 23.8469 29.6035 23.8469C31.3244 23.8469 32.7194 25.2517 32.7194 26.9847Z" fill="#4F2828"/>
<path d="M51.415 23.2194C51.415 24.9523 50.0199 26.3571 48.299 26.3571C46.5782 26.3571 45.1831 24.9523 45.1831 23.2194C45.1831 21.4864 46.5782 20.0816 48.299 20.0816C50.0199 20.0816 51.415 21.4864 51.415 23.2194Z" fill="#4F2828"/>
<path d="M38.9511 15.6888C38.9511 17.4217 37.5561 18.8265 35.8352 18.8265C34.1143 18.8265 32.7192 17.4217 32.7192 15.6888C32.7192 13.9558 34.1143 12.551 35.8352 12.551C37.5561 12.551 38.9511 13.9558 38.9511 15.6888Z" fill="#4F2828"/>
<path d="M51.415 8.15814C51.415 9.89108 50.0199 11.2959 48.299 11.2959C46.5782 11.2959 45.1831 9.89108 45.1831 8.15814C45.1831 6.42521 46.5782 5.02039 48.299 5.02039C50.0199 5.02039 51.415 6.42521 51.415 8.15814Z" fill="#4F2828"/>
<path d="M45.1831 19.454C45.1831 21.187 43.788 22.5918 42.0671 22.5918C40.3462 22.5918 38.9512 21.187 38.9512 19.454C38.9512 17.7211 40.3462 16.3163 42.0671 16.3163C43.788 16.3163 45.1831 17.7211 45.1831 19.454Z" fill="#4F2828"/>
<path d="M57.6469 19.454C57.6469 21.187 56.2519 22.5918 54.531 22.5918C52.8101 22.5918 51.415 21.187 51.415 19.454C51.415 17.7211 52.8101 16.3163 54.531 16.3163C56.2519 16.3163 57.6469 17.7211 57.6469 19.454Z" fill="#4F2828"/>
<path d="M45.1831 11.9235C45.1831 13.6564 43.788 15.0612 42.0671 15.0612C40.3462 15.0612 38.9512 13.6564 38.9512 11.9235C38.9512 10.1905 40.3462 8.78571 42.0671 8.78571C43.788 8.78571 45.1831 10.1905 45.1831 11.9235Z" fill="#4F2828"/>
<path d="M51.415 15.6888C51.415 17.4217 50.0199 18.8265 48.299 18.8265C46.5782 18.8265 45.1831 17.4217 45.1831 15.6888C45.1831 13.9558 46.5782 12.551 48.299 12.551C50.0199 12.551 51.415 13.9558 51.415 15.6888Z" fill="#4F2828"/>
<path d="M57.6469 11.9235C57.6469 13.6564 56.2519 15.0612 54.531 15.0612C52.8101 15.0612 51.415 13.6564 51.415 11.9235C51.415 10.1905 52.8101 8.78571 54.531 8.78571C56.2519 8.78571 57.6469 10.1905 57.6469 11.9235Z" fill="#4F2828"/>
<path d="M93.7918 40.7908C93.7918 42.5237 95.1868 43.9285 96.9077 43.9285C98.6286 43.9285 100.024 42.5237 100.024 40.7908C100.024 39.0578 98.6286 37.653 96.9077 37.653C95.1868 37.653 93.7918 39.0578 93.7918 40.7908Z" fill="#4F2828"/>
<path d="M63.8789 8.15814C63.8789 9.89108 62.4838 11.2959 60.7629 11.2959C59.042 11.2959 57.647 9.89108 57.647 8.15814C57.647 6.42521 59.042 5.02039 60.7629 5.02039C62.4838 5.02039 63.8789 6.42521 63.8789 8.15814Z" fill="#4F2828"/>
<path d="M90.0528 34.5153C90.0528 36.2482 91.4478 37.653 93.1687 37.653C94.8896 37.653 96.2847 36.2482 96.2847 34.5153C96.2847 32.7823 94.8896 31.3775 93.1687 31.3775C91.4478 31.3775 90.0528 32.7823 90.0528 34.5153Z" fill="#4F2828"/>
<path d="M82.5745 23.2194C82.5745 24.9523 83.9696 26.3571 85.6905 26.3571C87.4113 26.3571 88.8064 24.9523 88.8064 23.2194C88.8064 21.4864 87.4113 20.0816 85.6905 20.0816C83.9696 20.0816 82.5745 21.4864 82.5745 23.2194Z" fill="#4F2828"/>
<path d="M88.8062 19.454C88.8062 21.187 90.2013 22.5918 91.9221 22.5918C93.643 22.5918 95.0381 21.187 95.0381 19.454C95.0381 17.7211 93.643 16.3163 91.9221 16.3163C90.2013 16.3163 88.8062 17.7211 88.8062 19.454Z" fill="#4F2828"/>
<path d="M88.8062 26.9847C88.8062 28.7176 90.2013 30.1224 91.9221 30.1224C93.643 30.1224 95.0381 28.7176 95.0381 26.9847C95.0381 25.2517 93.643 23.8469 91.9221 23.8469C90.2013 23.8469 88.8062 25.2517 88.8062 26.9847Z" fill="#4F2828"/>
<path d="M70.1106 23.2194C70.1106 24.9523 71.5057 26.3571 73.2266 26.3571C74.9475 26.3571 76.3425 24.9523 76.3425 23.2194C76.3425 21.4864 74.9475 20.0816 73.2266 20.0816C71.5057 20.0816 70.1106 21.4864 70.1106 23.2194Z" fill="#4F2828"/>
<path d="M82.5745 15.6888C82.5745 17.4217 83.9696 18.8265 85.6905 18.8265C87.4113 18.8265 88.8064 17.4217 88.8064 15.6888C88.8064 13.9558 87.4113 12.551 85.6905 12.551C83.9696 12.551 82.5745 13.9558 82.5745 15.6888Z" fill="#4F2828"/>
<path d="M70.1106 8.15814C70.1106 9.89108 71.5057 11.2959 73.2266 11.2959C74.9475 11.2959 76.3425 9.89108 76.3425 8.15814C76.3425 6.42521 74.9475 5.02039 73.2266 5.02039C71.5057 5.02039 70.1106 6.42521 70.1106 8.15814Z" fill="#4F2828"/>
<path d="M76.3426 19.454C76.3426 21.187 77.7376 22.5918 79.4585 22.5918C81.1794 22.5918 82.5745 21.187 82.5745 19.454C82.5745 17.7211 81.1794 16.3163 79.4585 16.3163C77.7376 16.3163 76.3426 17.7211 76.3426 19.454Z" fill="#4F2828"/>
<path d="M63.8787 19.454C63.8787 21.187 65.2738 22.5918 66.9947 22.5918C68.7155 22.5918 70.1106 21.187 70.1106 19.454C70.1106 17.7211 68.7155 16.3163 66.9947 16.3163C65.2738 16.3163 63.8787 17.7211 63.8787 19.454Z" fill="#4F2828"/>
<path d="M76.3426 11.9235C76.3426 13.6564 77.7376 15.0612 79.4585 15.0612C81.1794 15.0612 82.5745 13.6564 82.5745 11.9235C82.5745 10.1905 81.1794 8.78571 79.4585 8.78571C77.7376 8.78571 76.3426 10.1905 76.3426 11.9235Z" fill="#4F2828"/>
<path d="M70.1106 15.6888C70.1106 17.4217 71.5057 18.8265 73.2266 18.8265C74.9475 18.8265 76.3425 17.4217 76.3425 15.6888C76.3425 13.9558 74.9475 12.551 73.2266 12.551C71.5057 12.551 70.1106 13.9558 70.1106 15.6888Z" fill="#4F2828"/>
<path d="M63.8787 11.9235C63.8787 13.6564 65.2738 15.0612 66.9947 15.0612C68.7155 15.0612 70.1106 13.6564 70.1106 11.9235C70.1106 10.1905 68.7155 8.78571 66.9947 8.78571C65.2738 8.78571 63.8787 10.1905 63.8787 11.9235Z" fill="#4F2828"/>
<path d="M63.8789 15.6888C63.8789 17.4217 62.4838 18.8265 60.7629 18.8265C59.042 18.8265 57.647 17.4217 57.647 15.6888C57.647 13.9558 59.042 12.551 60.7629 12.551C62.4838 12.551 63.8789 13.9558 63.8789 15.6888Z" fill="#4F2828"/>
<path d="M63.8789 23.2194C63.8789 24.9523 62.4838 26.3571 60.7629 26.3571C59.042 26.3571 57.647 24.9523 57.647 23.2194C57.647 21.4864 59.042 20.0816 60.7629 20.0816C62.4838 20.0816 63.8789 21.4864 63.8789 23.2194Z" fill="#4F2828"/>
</svg>
