<svg width="140" height="121" fill="none" xmlns="http://www.w3.org/2000/svg"><path d="M12.159 65.081a1.701 1.701 0 00-1.53 2.15c2.011 7.707 9.645 23.53 22.203 34.01 16.065 13.408 27.524 10.413 35.616 6.689a1.926 1.926 0 001.113-1.564c.866-8.865-.06-20.674-17.993-31.456-14.018-8.43-31.468-10.455-39.41-9.83zm116.349 0a1.701 1.701 0 011.529 2.15c-2.011 7.707-9.645 23.53-22.202 34.01-16.065 13.408-27.525 10.413-35.616 6.689a1.926 1.926 0 01-1.113-1.564c-.867-8.865.06-20.674 17.993-31.456 14.017-8.429 31.468-10.455 39.409-9.829z" fill="#C0E6D9"/><path fill-rule="evenodd" clip-rule="evenodd" d="M69.78 106.633c.021-.087.036-.177.045-.267.866-8.865-.06-20.674-17.993-31.457-8.049-4.839-17.23-7.568-25.091-8.896 1.756 6.28 4.244 12.859 7.648 19.024 11.247 20.365 23.111 23.457 32.22 23.803a46.803 46.803 0 002.103-.91c.355-.163.645-.427.841-.749.077-.181.152-.364.227-.548z" fill="#AADDCB"/><path d="M29.933 34.983a1.7 1.7 0 00-2.427 1.402c-.841 8.735.794 28.23 9.087 45.085 10.62 21.583 22.771 24.752 31.973 25.371.78.052 1.51-.369 1.854-1.071 4.065-8.278 7.396-20.386-5.985-40.374-10.451-15.61-26.516-26.773-34.502-30.413z" fill="#D9F6EC"/><path fill-rule="evenodd" clip-rule="evenodd" d="M70.886 106.633a1.953 1.953 0 01-.045-.267c-.866-8.865.06-20.674 17.993-31.457 8.049-4.839 17.229-7.568 25.092-8.896-1.757 6.28-4.244 12.859-7.649 19.024-11.247 20.365-23.111 23.457-32.22 23.803a46.858 46.858 0 01-2.103-.91 1.926 1.926 0 01-.841-.749 49.93 49.93 0 01-.227-.548z" fill="#AADDCB"/><path d="M110.733 34.983a1.7 1.7 0 012.427 1.402c.841 8.735-.793 28.23-9.087 45.085-10.62 21.583-22.771 24.752-31.973 25.371a1.919 1.919 0 01-1.854-1.071c-4.064-8.278-7.396-20.386 5.986-40.374 10.45-15.61 26.515-26.773 34.501-30.413z" fill="#D9F6EC"/><path d="M71.603 8.529a1.752 1.752 0 00-2.724 0C62.199 16.596 50.674 38.146 48.987 61c-2.138 28.954 10.041 39.34 20.258 45.417a1.947 1.947 0 001.991 0C81.453 100.34 93.631 89.954 91.494 61 89.807 38.146 78.282 16.596 71.603 8.529z" fill="#E8F9F4"/><circle cx="69.74" cy="9" r="9" fill="#E7F6FF"/><path fill-rule="evenodd" clip-rule="evenodd" d="M64.24 35.5c0 3 0 7.3-2 8.5-2 1.2-6.833 2.5-9.5 3-2.333.333-8 1.5-9 8-.732 4.76-3.5 30-3.5 30l-17.5 10.5-4-3c-2.333-.333-7.1-.5-7.5 1.5-.5 2.5 2 10 12.5 8l20.5-8.5c1.667-.5 4.332-2.827 5.5-7.5 1.5-6 2.5-14 3-18 0 0 .5 10 2.5 12 2.762 2.761 4 5 3.5 7.5-.154.773-.997 1.6-1.966 2.55-.88.863-1.866 1.83-2.534 2.95-.277.466-.519 1.136-.78 1.861-.654 1.816-1.432 3.977-3.22 4.139l-1.896.172-.082.007h-.008c-10.651.964-23.402 2.117-28.513 3.821-7.867 2.622-6.5 14.5 3 14.5h35.5c2.44 0 3.928-.596 5.45-1.205 1.598-.64 3.234-1.295 6.05-1.295 2.815 0 4.451.655 6.049 1.295 1.523.609 3.01 1.205 5.45 1.205h35.501c9.5 0 10.867-11.878 3-14.5-5.112-1.704-17.863-2.857-28.514-3.82L89.24 99c-1.786-.162-2.565-2.323-3.22-4.139-.26-.725-.502-1.395-.78-1.861-.667-1.12-1.652-2.087-2.533-2.95-.969-.95-1.812-1.777-1.966-2.55-.5-2.5.738-4.739 3.5-7.5 2-2 2.5-12 2.5-12 .5 4 1.5 12 3 18 1.168 4.673 3.833 7 5.5 7.5l20.5 8.5c10.5 2 13-5.5 12.5-8-.4-2-5.167-1.833-7.5-1.5l-4 3-17.5-10.5c-.612-4.368-1.343-11.092-2.005-17.187C96.634 62.28 96.089 57.265 95.74 55c-1-6.5-6.666-7.667-9-8-2.666-.5-7.5-1.8-9.5-3s-2-5.5-2-8.5c1.433-.716 3.378-2.714 4.367-7.647.737-.573 1.333-1.91 1.478-3.509.146-1.616-.21-3.052-.845-3.739V20.5c0-9.2-6.833-11.5-10.5-11.5-3.647 0-10.427 2.276-10.499 11.354-.816.523-1.308 2.138-1.14 3.99.166 1.837.928 3.327 1.815 3.711 1 4.786 2.912 6.739 4.325 7.445z" fill="#86B2D7"/><path d="M89.193 83.644c.932-3.123 1.584-6.062 1.978-9.123.643-5.003.581-10.215.017-16.948-.116-1.386-1.318-2.415-2.684-2.297-1.366.118-2.38 1.337-2.264 2.724.192 2.28.32 4.349.383 6.267.163 4.976.17 4 .17 4 .43 3.44 1.23 9.837 2.4 15.377zM85.74 76.5c-.695-.892-2.123-1.104-3.186-.607-1.414.663-3.455 2.154-4.916 3.96-1.333 1.648-3.067 4.756-1.074 7.789.967 1.473 1.51 2.784 1.98 4.033.06.156.12.318.18.486l.002.004c.392 1.063.859 2.33 1.573 3.399 1.975 2.957 5.373 4.03 11.638 4.284a2.446 2.446 0 001.527-.456c-1.475-.134-2.324-.265-3.724-.392-2.43-.221-3.266-3.265-4-5-1.291-3.054-4.5-5-5-6.5-.523-1.57.74-4.739 3.5-7.5.589-.588 1.146-1.985 1.5-3.5zm35.404 27.172a2.542 2.542 0 00-.256 1.737c.639 3.08-.167 5.009-1.22 6.259-1.065 1.264-2.536 2-3.601 2.293H16.563c-.288 0-.565.049-.822.141 1.293 1.972 3.608 3.398 6.899 3.398h35.5c2.44 0 3.928-.596 5.45-1.205 1.598-.64 3.234-1.295 6.05-1.295 2.815 0 4.452.655 6.049 1.295 1.523.609 3.01 1.205 5.45 1.205h35.501c8.841 0 10.638-10.287 4.504-13.828zM52.759 66.733c.047-2.651.251-5.574.538-9 .117-1.386-.897-2.606-2.263-2.724-1.366-.118-2.568.91-2.684 2.297-.564 6.733-.627 11.946.017 16.948a54.92 54.92 0 001.906 8.971c1.152-5.504 1.94-11.817 2.367-15.225l.119-1.267z" fill="#6A9CC4"/><circle cx="69.74" cy="25" r="5" fill="#FFC9F0"/><circle cx="69.74" cy="9" r="5" fill="#fff"/><circle cx="69.74" cy="41" r="5" fill="#72ECF4"/><circle cx="69.74" cy="57" r="5" fill="#A4EA6E"/><circle cx="69.74" cy="73" r="5" fill="#FFE766"/><circle cx="69.74" cy="89" r="5" fill="#FFD000"/><circle cx="69.74" cy="105" r="5" fill="#FF6C81"/></svg>